<svg version="1.2" xmlns="http://www.w3.org/2000/svg" viewBox="0 0 1024 1024" width="256" height="256">
	<title>ChatGPT Image 3 ago 2025, 01_33_26 p</title>
	<style>
		.s0 { fill: #fefefe } 
	</style>
	<path id="Path 0" fill-rule="evenodd" class="s0" d="m513.5 91.3c7.9 0.3 11.3 0.8 16 2.8 3.3 1.3 13.6 6.9 23 12.3 9.4 5.5 37.5 22 62.5 36.6 25 14.7 68.5 40.1 96.5 56.4 32.2 18.8 52.6 31.3 55.3 33.9 2.3 2.3 5.3 6.2 8.7 13.2l0.5 199 23.8 13.6c13 7.4 35.4 20.4 49.7 28.9 14.3 8.4 30.5 18.3 36 22 5.5 3.7 11.2 8.1 12.8 9.8 1.5 1.8 3.2 5.1 3.8 7.5 0.9 3 1.1 34.8 1 115.7-0.1 61.3-0.6 114.4-1 118-0.5 3.6-1.8 8.4-3 10.8-1.1 2.3-4 5.7-6.4 7.6-2.3 1.8-13.9 10-25.7 18.1-11.8 8.2-26.9 18.5-33.5 23-6.6 4.5-17.2 11.7-23.5 16-6.3 4.3-11.6 8.2-11.8 8.7-0.1 0.4-0.7 0.8-1.2 0.8-0.5 0-7 4.1-14.3 9.2-7.2 5-13.4 9.4-13.7 9.8-0.3 0.4-1.2 0.9-2 1.3-0.8 0.4-8.3 5.4-16.5 11.1-8.3 5.8-29.4 20.3-46.9 32.3-17.6 12-34.2 22.8-37 24-3.3 1.4-7.2 2.2-10.9 2.3-3.1 0-7.8-0.5-10.5-1.2-2.6-0.6-5.8-1.8-7.2-2.7-1.4-0.8-12.4-8.7-24.5-17.5-12.1-8.8-25.1-18.3-29-21.1-3.9-2.8-16.2-11.9-27.5-20.2-11.3-8.2-25.8-18.9-44-32.3l-11.3 8.2c-6.1 4.5-15.3 11.1-20.2 14.7-4.9 3.6-9.2 6.8-9.5 7.1-0.3 0.4-2.8 2.2-5.5 4-2.8 1.9-21 15.2-40.5 29.5-19.5 14.3-37.2 26.8-39.3 27.8-2 0.9-6.3 2.3-9.5 3.1-3.8 0.9-7.4 1.1-10.7 0.6-2.8-0.5-6.2-1.3-7.8-1.9-1.5-0.6-12.3-7.7-24-15.7-11.6-8-22.3-15.4-23.7-16.4-1.4-1-10.4-7.2-20-13.7-9.6-6.5-17.7-12.1-18-12.4-0.3-0.3-7.3-5.1-15.5-10.6-8.3-5.5-20.5-13.8-27.2-18.4-6.7-4.6-17.1-11.7-23-15.8-5.9-4.1-15.5-10.7-21.3-14.6-5.8-3.9-19.9-13.5-31.5-21.2-11.6-7.8-22.5-15.6-24.4-17.5-1.9-1.8-4.4-5.3-5.5-7.8-2.1-4.5-2.1-5.2-2.4-115-0.2-71 0.1-114.1 0.7-120.5 0.8-7.6 1.6-10.8 3.3-13.3 1.3-1.8 5.2-5.2 8.8-7.6 3.6-2.4 18.6-11.7 33.5-20.8 14.8-9.1 39-23.5 80.5-47.8v-97.3c0-82 0.2-98 1.4-102.2 0.9-3.1 3.2-6.9 5.8-9.9 3.3-3.8 9.8-8.1 28.3-19.1 13.2-7.8 62.7-36.9 110-64.7 47.3-27.8 88.7-52 92-53.9 3.3-1.8 8.5-4.1 11.5-5.1 4.1-1.3 8.1-1.7 15.5-1.5zm-77.5 82.7c-31.1 18.3-63 37.2-71 42-8 4.7-24.1 14.2-35.8 21.1-11.7 6.8-20.9 12.7-20.5 13 0.5 0.4 30.7 19.3 67.3 42.1 36.6 22.8 81.6 50.9 100 62.3 18.4 11.4 34.4 21.2 35.5 21.8 1.7 0.8 5-0.9 20-10.2 9.9-6.2 18.7-11.6 19.5-12.1 0.8-0.5 38.2-24 83-52.1 44.8-28.1 81.8-51.4 82.2-51.7 0.5-0.4-21.6-14-49-30.2-27.3-16.2-51.3-30.4-53.4-31.5-2-1.1-16.2-9.4-31.5-18.4-15.3-9.1-37.1-22-48.6-28.8-11.4-6.8-21-12.3-21.5-12.2-0.4 0-5 2.7-10.2 5.8-5.2 3.2-34.9 20.8-66 39.1zm237.5 152.3c-27.5 17.6-64.6 41.2-82.5 52.5-17.9 11.4-32.6 21-32.8 21.4-0.1 0.4-0.7 0.8-1.2 0.8-0.5 0-5.4 2.8-10.8 6.2-5.3 3.4-10.3 6.8-11 7.5-0.9 1-1.2 20.8-1.2 92.3 0 50 0.2 91 0.5 91 0.3 0 1.7-0.9 3.2-2.1 1.6-1.2 11.2-7.6 21.4-14.3 10.2-6.6 26.2-17 35.5-23.1 9.3-6 17-11.3 17.1-11.7 0.2-0.5 0.8-0.8 1.3-0.8 0.5 0 20.2-12.7 43.7-28.1 23.6-15.5 51-33.5 61-40l18.3-11.9c0-138.7-0.3-179-0.8-178.9-0.4 0-3.2 1.7-6.2 3.7-3 2-28 18-55.5 35.5zm-384.5 139.7c6.6 4.1 29.9 19.3 56 36.3 26.1 17.1 59.9 39.1 75 49 15.1 9.9 34.4 22.4 42.7 27.8 8.4 5.5 15.6 9.9 16 9.9 0.5-0.1 1.7 0.9 2.8 2 1.1 1.1 2.6 2.1 3.2 2 0.7 0 1.3 0.3 1.3 0.8 0 0.4 1.3 1.5 3 2.5 1.6 0.9 3.2 1.7 3.5 1.7 0.3 0 0.4-41.3 0.2-91.7l-0.2-91.8c-31-19.5-73.5-46.2-114.5-72-41-25.8-75.4-47.4-76.5-48-1.1-0.6-3.9-2.3-6.3-3.8-2.3-1.5-4.7-2.7-5.2-2.7-0.7 0-1 30.3-1 89zm-102.7 63.3l-8.1 4.2c10.3 6.9 48.8 33.4 92.3 63.3 43.4 30 85.3 58.8 93 64.1 7.6 5.3 14.3 9.5 14.7 9.4 0.4-0.2 14-8.9 30-19.4 16.1-10.6 33.5-21.8 38.5-25 5.1-3.3 9.3-6.2 9.3-6.6 0-0.5-3.3-2.8-7.3-5.2-3.9-2.5-17.7-11.4-30.5-19.8-12.7-8.4-23.4-15.3-23.7-15.3-0.3 0-1.4-0.8-2.4-1.7-1-1-3.2-2.5-4.7-3.3-1.6-0.8-3.1-1.8-3.4-2.1-0.3-0.3-3-2.2-6-4.1-3-1.9-31.5-20.7-63.3-41.7-31.7-20.9-58-38.1-58.5-38-0.4 0-14.4 8.4-31.2 18.5-16.8 10.1-34.2 20.3-38.7 22.7zm541.9-14.2c-20.5 13.4-41.8 27.3-47.2 30.9-5.5 3.6-21.4 13.9-35.3 23-13.8 9.1-31.7 20.8-39.6 26-7.9 5.2-15.8 10.4-17.5 11.5-1.8 1.1-7.1 4.5-11.9 7.5-6.8 4.2-8.5 5.8-7.5 6.6 0.7 0.6 7.8 5.2 15.8 10.1 8 4.9 24.9 15.5 37.5 23.5 12.6 8.1 23.7 14.9 24.5 15.2 0.9 0.4 6.2-2.6 14-8 6.9-4.8 16.8-11.6 22-15.2 5.2-3.6 24.4-16.8 42.5-29.3 18.1-12.4 52.5-36.1 76.4-52.5 23.9-16.5 43.6-30.4 43.8-30.9 0.2-0.5-3.2-2.7-7.4-4.9-4.3-2.1-21.6-12.1-38.5-22.2-17-10.1-30.9-18.4-31.1-18.4-0.1 0-0.9 0.6-1.7 1.4-0.8 0.7-18.3 12.3-38.8 25.7zm-566.3 235.4c6.3 4.3 8.5 5.5 9.1 5.5 0.5 0 1.1 0.4 1.2 0.8 0.2 0.4 17.4 12.3 38.3 26.3 20.9 14.1 45.2 30.4 54 36.4 8.8 5.9 19.7 13.4 24.2 16.7 4.6 3.2 8.7 5.8 9.3 5.8 0.5 0 1.1 0.3 1.2 0.8 0.2 0.4 2.5 2.3 5.3 4.3 2.7 2 8.1 5.8 12 8.4 3.8 2.7 13.9 9.5 22.2 15.2 8.4 5.7 15.7 10.3 16.3 10.3 0.7 0 0.9-29.6 0.7-87.2l-0.2-87.3c-3.5-1.5-4.5-2.3-4.5-2.7 0-0.5-0.7-0.8-1.5-0.8-0.8 0-1.6-0.3-1.8-0.7-0.1-0.5-1.6-1.7-3.2-2.9-1.7-1.1-5.9-4.1-9.5-6.6-3.6-2.5-18.7-13-33.5-23.5-14.9-10.4-51.1-35.6-80.5-55.9-29.4-20.4-54.6-37.9-56-38.8l-2.6-1.8zm656.5-146.7c-4.9 3.4-29.6 20.7-54.9 38.4-25.3 17.6-56.4 39.3-69 48.1-12.7 8.8-23.1 16.4-23.3 16.8-0.1 0.5-0.9 0.9-1.7 0.9-1.3 0-1.5 5.7-1 47.2 0.2 26 0.4 65.4 0.5 87.5v40.3c31-21.3 47.2-32.5 56-38.5 8.8-6.1 35.4-24.4 59.2-40.7 23.8-16.3 51.3-35 61-41.5l17.7-11.8c0.1-137.6 0-177.5-0.2-177.5-0.1 0-8.1 5.5-17.8 12.2-9.6 6.8-21.6 15.1-26.5 18.6zm-351.9 58.8c-7.7 5.1-14.5 9.7-15 10.2-0.6 0.4-9.3 6.4-19.4 13.3-10.1 6.8-21.6 14.5-25.5 17.1l-7.1 4.7c0 124.7 0.2 160.7 0.5 160.5 0.3-0.2 0.9 0 1.5 0.5 0.6 0.6 3.7-1.1 8.5-4.7 4.2-3.2 9.1-6.8 11-8.2 1.9-1.3 3.9-2.8 4.5-3.3 0.5-0.4 4.9-3.6 9.6-7 4.7-3.4 9.7-7 11-8 1.3-0.9 5.3-3.9 8.9-6.5 3.6-2.6 6.7-4.9 7-5.3 0.3-0.3 2.7-2.1 5.5-3.9 2.7-1.9 5.5-3.9 6.1-4.5 0.7-0.6 5.1-3.7 9.8-7l8.6-6c0-122.9-0.4-158.5-0.8-158.5-0.4 0.1-3 1.7-5.7 3.7-2.8 2-11.3 7.8-19 12.9zm67.5 142.9c50.7 36.4 71.2 51.1 78.2 56.2 7 5.1 13 9.3 13.3 9.3 0.3 0 0.5-36.8 0.5-81.8l-0.1-81.7c-14.3-9.6-32.1-21.7-48.9-32.9-16.8-11.3-31.1-21-31.8-21.6-0.7-0.6-1.6-1-2-1-0.4 0-1.4-0.7-2.2-1.6-0.8-0.9-2.7-2.3-4.2-3.1l-2.7-1.4z"/>
</svg>