<svg version="1.2" xmlns="http://www.w3.org/2000/svg" viewBox="0 0 1254 1254" width="264" height="264">
	<style>
		.s0 { fill: #304a9b } 
		.s1 { fill: #fcfcfc } 
		.s2 { fill: #e4151c } 
	</style>
	<g id="Background">
		<path id="Path 0" class="s0" d="m594-0.91c-5.23 0.44-15.35 1.31-22.5 1.92-7.15 0.61-22.23 2.41-33.5 4.01-11.27 1.6-27.25 4.29-35.5 5.99-8.25 1.69-22.88 5.12-32.5 7.61-9.63 2.5-26.5 7.48-37.5 11.07-11 3.59-27.2 9.36-36 12.82-8.8 3.45-21.18 8.63-27.5 11.49-6.32 2.87-17.13 8.01-24 11.44-6.88 3.43-18.35 9.53-25.5 13.55-7.15 4.03-19.07 11.16-26.5 15.84-7.43 4.69-21.1 13.95-30.38 20.59-9.28 6.65-22.56 16.72-29.5 22.4-6.94 5.67-17.99 15.12-24.55 21-6.56 5.87-18.67 17.43-26.91 25.68-8.25 8.25-20.65 21.46-27.58 29.36-6.92 7.9-17.9 21.18-24.4 29.5-6.5 8.33-18 24.37-25.55 35.64-7.55 11.27-17.81 27.7-22.8 36.5-5 8.8-12.45 22.75-16.57 31-4.12 8.25-9.77 20.18-12.56 26.5-2.79 6.32-7.53 17.8-10.52 25.5-3 7.7-8.39 23-11.99 34-3.59 11-8.57 27.88-11.07 37.5-2.49 9.63-6.11 25.38-8.02 35-1.92 9.63-4.4 23.8-5.51 31.5-1.1 7.7-2.68 21.2-3.5 30-0.81 8.8-1.96 22.08-2.54 29.5-0.58 7.42-1.05 21.71-1.05 31.75 0 10.04 0.46 23.76 1.03 30.5 0.56 6.74 1.72 19.67 2.56 28.75 0.84 9.08 2.43 22.8 3.52 30.5 1.1 7.7 3.57 21.88 5.49 31.5 1.91 9.63 5.53 25.38 8.02 35 2.5 9.63 7.48 26.5 11.07 37.5 3.59 11 9.36 27.2 12.81 36 3.46 8.8 8.83 21.63 11.94 28.5 3.1 6.88 9.6 20.15 14.43 29.5 4.83 9.35 12.54 23.3 17.13 31 4.59 7.7 12.85 20.75 18.36 29 5.51 8.25 14.28 20.63 19.48 27.5 5.21 6.88 14.75 18.8 21.2 26.5 6.45 7.7 17.52 20.16 24.59 27.69 7.08 7.54 18.72 19.21 25.87 25.94 7.15 6.74 17.72 16.3 23.5 21.26 5.78 4.95 14.78 12.41 20 16.57 5.22 4.16 16.48 12.54 25 18.63 8.52 6.08 21.57 14.9 29 19.61 7.43 4.7 19.35 11.82 26.5 15.82 7.15 4 18.63 10.08 25.5 13.51 6.88 3.44 17.68 8.59 24 11.46 6.32 2.87 18.7 8.05 27.5 11.5 8.8 3.46 25 9.23 36 12.82 11 3.59 27.88 8.57 37.5 11.07 9.63 2.49 24.02 5.87 32 7.51 7.98 1.64 22.15 4.11 31.5 5.49 9.35 1.38 21.5 2.99 27 3.58 5.5 0.58 18.55 1.73 29 2.54 10.45 0.82 27.33 1.49 37.5 1.49 10.17 0 27.05-0.67 37.5-1.49 10.45-0.81 23.5-1.96 29-2.54 5.5-0.59 17.65-2.2 27-3.58 9.35-1.38 23.52-3.85 31.5-5.49 7.98-1.64 22.38-5.02 32-7.51 9.63-2.5 26.5-7.48 37.5-11.07 11-3.59 27.2-9.36 36-12.82 8.8-3.45 21.17-8.63 27.5-11.5 6.33-2.87 17.35-8.14 24.5-11.71 7.15-3.57 19.64-10.27 27.75-14.89 8.11-4.61 20.49-12.08 27.5-16.58 7.01-4.51 19.05-12.72 26.75-18.24 7.7-5.53 18.27-13.45 23.5-17.61 5.23-4.16 14.22-11.64 20-16.62 5.78-4.98 16.35-14.56 23.5-21.29 7.15-6.73 18.79-18.38 25.87-25.89 7.08-7.52 18.15-19.96 24.6-27.66 6.44-7.7 15.98-19.63 21.18-26.5 5.21-6.88 13.7-18.8 18.86-26.5 5.17-7.7 13.83-21.42 19.24-30.5 5.41-9.08 14.98-26.85 21.27-39.5 6.29-12.65 14.42-30.2 18.06-39 3.64-8.8 10.37-27.25 14.96-41 4.59-13.75 10.38-32.88 12.86-42.5 2.49-9.63 6.09-25.38 8-35 1.92-9.63 4.39-23.8 5.48-31.5 1.1-7.7 2.68-21.2 3.51-30 0.83-8.8 1.99-22.08 2.56-29.5 0.58-7.42 1.05-21.6 1.05-31.5-0.01-9.9-0.89-28.8-1.97-42-1.07-13.2-2.87-30.98-3.99-39.5-1.12-8.52-2.97-20.67-4.12-27-1.14-6.33-3.19-16.68-4.54-23-1.35-6.32-4.27-18.48-6.5-27-2.23-8.52-6.99-24.5-10.58-35.5-3.59-11-8.98-26.3-11.98-34-2.99-7.7-7.73-19.18-10.52-25.5-2.79-6.32-8.21-17.8-12.05-25.5-3.83-7.7-11.29-21.65-16.56-31-5.28-9.35-15.78-26.23-23.33-37.5-7.55-11.27-17.6-25.45-22.32-31.5-4.72-6.05-13.48-16.85-19.46-24-5.98-7.15-16.65-19.15-23.73-26.66-7.07-7.52-18.7-19.18-25.85-25.92-7.15-6.74-17.72-16.32-23.5-21.28-5.78-4.97-14.77-12.43-20-16.6-5.23-4.16-15.8-12.08-23.5-17.61-7.7-5.52-19.74-13.73-26.75-18.24-7.01-4.5-19.39-11.97-27.5-16.58-8.11-4.62-20.6-11.32-27.75-14.89-7.15-3.57-18.17-8.84-24.5-11.71-6.33-2.87-18.7-8.05-27.5-11.5-8.8-3.46-25-9.23-36-12.82-11-3.59-27.88-8.57-37.5-11.07-9.62-2.49-24.25-5.92-32.5-7.61-8.25-1.7-24.23-4.39-35.5-5.98-11.27-1.6-26.13-3.38-33-3.96-6.87-0.59-18.01-1.52-24.75-2.07-6.74-0.55-21.81-0.94-33.5-0.86-11.69 0.07-25.52 0.5-30.75 0.95z"/>
		<path id="Path 1" class="s1" d="m597.5 4.58c-2.75 0.2-11.75 0.85-20 1.46-8.25 0.6-23.1 2.18-33 3.5-9.9 1.33-25.42 3.8-34.5 5.49-9.07 1.7-25.95 5.51-37.5 8.47-11.55 2.96-28.88 7.93-38.5 11.06-9.63 3.12-23.8 8.13-31.5 11.13-7.7 2.99-19.18 7.71-25.5 10.49-6.32 2.77-15.77 7.06-21 9.52-5.23 2.46-15.35 7.65-22.5 11.54-7.15 3.89-17.27 9.55-22.5 12.58-5.23 3.02-17.32 10.71-26.87 17.09-9.56 6.37-18.62 12.49-20.15 13.59-1.53 1.1-4.96 3.53-7.63 5.41-2.67 1.88-5.3 3.8-5.85 4.27-0.55 0.47-2.35 1.99-4 3.38-1.65 1.38-5.46 4.41-8.46 6.73-3.01 2.31-6.19 4.89-7.08 5.71-0.88 0.82-3.29 2.85-5.34 4.5-2.06 1.65-5.2 4.35-6.98 6-1.78 1.65-6.28 5.7-9.98 9-3.71 3.3-14.54 13.88-24.06 23.5-9.52 9.63-18.84 19.16-20.71 21.19-1.86 2.02-5.19 5.82-7.39 8.43-2.2 2.61-5.13 6.02-6.5 7.57-1.38 1.56-3.4 4-4.5 5.42-1.1 1.42-2.9 3.6-4 4.85-1.1 1.25-2.9 3.51-4 5.03-1.1 1.52-3.12 4.17-4.49 5.89-1.38 1.71-2.95 3.63-3.5 4.25-0.56 0.62-1.69 2.12-2.51 3.35-0.82 1.22-3.22 4.54-5.32 7.37-2.11 2.83-8.97 12.91-15.25 22.4-6.29 9.49-15.34 24.11-20.12 32.5-4.78 8.39-12.61 23.13-17.39 32.75-4.79 9.63-11.83 24.93-15.66 34-3.83 9.07-9.24 22.8-12.03 30.5-2.78 7.7-7.09 20.52-9.57 28.5-2.47 7.98-6.31 21.7-8.51 30.5-2.21 8.8-5.37 22.75-7.03 31-1.66 8.25-4.16 22.88-5.57 32.5-1.4 9.63-3.31 25.6-4.25 35.5-1.25 13.22-1.7 27.7-1.7 54.5 0.01 26.48 0.48 41.44 1.71 54.5 0.93 9.9 2.84 25.88 4.24 35.5 1.41 9.63 3.91 24.25 5.57 32.5 1.66 8.25 4.82 22.2 7.03 31 2.2 8.8 6.04 22.52 8.52 30.5 2.47 7.98 6.53 20.13 9 27 2.47 6.88 7 18.58 10.06 26 3.05 7.42 8.92 20.7 13.05 29.5 4.12 8.8 11.2 22.75 15.73 31 4.53 8.25 10.83 19.27 13.99 24.5 3.17 5.23 10.44 16.48 16.17 25 5.73 8.52 12 17.75 13.94 20.5 1.94 2.75 4.29 5.9 5.23 7 0.93 1.1 3.04 3.8 4.68 6 1.64 2.2 3.43 4.51 3.98 5.13 0.55 0.62 2.12 2.52 3.5 4.23 1.37 1.71 3.78 4.57 5.35 6.37 1.57 1.8 4.05 4.82 5.5 6.71 1.46 1.89 3.55 4.41 4.65 5.59 1.1 1.19 4.2 4.59 6.89 7.56 2.68 2.98 12.45 13.06 21.7 22.41 9.25 9.35 19.86 19.7 23.57 23 3.7 3.3 8.2 7.35 9.98 9 1.78 1.65 4.91 4.35 6.96 6 2.04 1.65 4.71 3.9 5.93 5 1.22 1.1 3.68 3.12 5.48 4.5 1.79 1.37 4.21 3.3 5.37 4.28 1.17 0.98 2.34 1.78 2.62 1.77 0.28 0 2.14 1.45 4.14 3.22 2 1.78 4.65 3.9 5.89 4.73 1.23 0.83 3.42 2.42 4.86 3.54 1.44 1.12 3.59 2.69 4.78 3.5 1.2 0.8 8.18 5.56 15.5 10.56 7.33 5.01 18.95 12.47 25.83 16.59 6.88 4.11 19.7 11.36 28.5 16.09 8.8 4.74 23.65 12.06 33 16.26 9.35 4.21 21.5 9.42 27 11.58 5.5 2.17 10.9 4.36 12 4.86 1.1 0.51 7.18 2.7 13.5 4.88 6.32 2.17 16.68 5.55 23 7.5 6.32 1.95 18.48 5.35 27 7.57 8.52 2.21 22.93 5.57 32 7.46 9.08 1.89 24.6 4.59 34.5 5.99 9.9 1.4 25.88 3.33 35.5 4.28 13.13 1.3 26.86 1.74 55 1.75 28.4 0.01 41.74-0.41 55-1.74 9.63-0.96 25.38-2.87 35-4.26 9.63-1.38 24.25-3.87 32.5-5.53 8.25-1.65 21.08-4.53 28.5-6.4 7.42-1.86 20.48-5.46 29-8.01 8.52-2.54 19.77-6.11 25-7.94 5.23-1.82 15.8-5.79 23.5-8.81 7.7-3.03 21.65-8.95 31-13.16 9.35-4.21 23.75-11.3 32-15.75 8.25-4.46 19.27-10.58 24.5-13.61 5.23-3.03 17.15-10.62 26.5-16.86 9.35-6.24 18.13-12.12 19.5-13.06 1.38-0.93 3.67-2.62 5.11-3.74 1.44-1.12 3.63-2.71 4.86-3.54 1.24-0.83 3.89-2.95 5.89-4.73 2-1.77 3.87-3.22 4.14-3.22 0.27 0.01 1.63-0.95 3-2.13 1.38-1.18 4.06-3.33 5.97-4.78 1.9-1.45 4.2-3.31 5.1-4.14 0.89-0.83 2.48-2.19 3.53-3.04 1.04-0.85 4.37-3.72 7.4-6.37 3.03-2.66 8.33-7.37 11.79-10.46 3.46-3.1 13.63-13.05 22.6-22.13 8.97-9.08 18.74-19.16 21.71-22.4 2.97-3.25 6.3-6.88 7.4-8.06 1.1-1.19 3.19-3.71 4.65-5.6 1.45-1.89 3.93-4.91 5.5-6.71 1.57-1.8 3.97-4.66 5.35-6.37 1.37-1.71 2.98-3.61 3.56-4.23 0.59-0.62 1.49-1.86 2-2.74 0.52-0.89 2.59-3.59 4.61-6 2.02-2.42 5.27-6.64 7.22-9.39 1.94-2.75 8.64-12.65 14.89-22 6.25-9.35 13.63-20.83 16.42-25.5 2.78-4.67 7.21-12.33 9.85-17 2.64-4.67 8.72-16.38 13.51-26 4.8-9.63 11.85-24.92 15.68-34 3.83-9.08 9.24-22.8 12.03-30.5 2.78-7.7 7.09-20.52 9.57-28.5 2.47-7.98 6.31-21.7 8.51-30.5 2.21-8.8 5.4-22.98 7.1-31.5 1.71-8.52 4.21-23.15 5.57-32.5 1.35-9.35 3.15-24.65 3.99-34 0.84-9.35 1.81-28.25 2.15-42 0.37-15.03 0.15-33.18-0.56-45.5-0.64-11.27-1.85-26.8-2.68-34.5-0.83-7.7-2.39-19.85-3.47-27-1.07-7.15-3.33-19.98-5.02-28.5-1.69-8.52-4.87-22.7-7.08-31.5-2.2-8.8-6.04-22.52-8.51-30.5-2.48-7.98-6.79-20.8-9.57-28.5-2.79-7.7-8.2-21.43-12.03-30.5-3.83-9.07-10.87-24.38-15.66-34-4.78-9.63-12.61-24.36-17.39-32.75-4.78-8.39-13.87-23.01-20.21-32.5-6.34-9.49-13.57-20.18-16.07-23.75-2.5-3.57-5.31-7.4-6.25-8.5-0.93-1.1-3.04-3.79-4.68-5.97-1.64-2.18-3.65-4.71-4.48-5.63-0.83-0.91-2.4-2.83-3.5-4.26-1.1-1.42-3.28-4.06-4.85-5.87-1.57-1.8-4.05-4.82-5.5-6.71-1.46-1.89-3.55-4.41-4.65-5.59-1.1-1.19-4.2-4.59-6.89-7.56-2.68-2.98-12.45-13.06-21.7-22.41-9.25-9.35-19.65-19.54-23.12-22.64-3.46-3.1-8.54-7.56-11.29-9.9-2.75-2.34-5.9-5.06-7-6.05-1.1-0.98-3.18-2.82-4.62-4.1-1.45-1.27-4.09-3.44-5.89-4.81-1.79-1.38-4.21-3.3-5.37-4.28-1.17-0.98-2.35-1.77-2.62-1.76-0.27 0.02-1.85-1.2-3.5-2.71-1.65-1.51-4.91-4.1-7.25-5.75-2.33-1.65-5.93-4.23-8-5.74-2.06-1.51-9.6-6.72-16.75-11.58-7.15-4.87-18.63-12.21-25.5-16.33-6.88-4.12-19.7-11.37-28.5-16.12-8.8-4.74-23.65-12.07-33-16.27-9.35-4.21-21.5-9.42-27-11.58-5.5-2.17-10.9-4.36-12-4.87-1.1-0.52-6.73-2.56-12.5-4.55-5.77-1.99-17.02-5.62-25-8.07-7.98-2.44-22.6-6.47-32.5-8.96-9.9-2.48-24.98-5.81-33.5-7.4-8.52-1.59-22.14-3.83-30.25-4.96-8.11-1.14-22.06-2.77-31-3.63-9.43-0.9-29.68-1.69-48.25-1.89-17.6-0.18-34.25-0.17-37 0.03z"/>
		<path id="Path 2" fill-rule="evenodd" class="s2" d="m318.25 256.01c1.51-0.01 3.99 0.48 5.5 1.07 1.51 0.59 4.77 3 7.25 5.34 2.48 2.34 7.43 6.15 11 8.46 3.57 2.31 8.98 5.12 12 6.24 3.02 1.12 6.96 2.9 8.75 3.96 1.79 1.05 3.47 1.81 3.75 1.67 0.27-0.14-0.22-2.27-1.09-4.75-0.87-2.48-1.66-6.82-1.75-9.67-0.13-4.27 0.27-5.61 2.34-7.77 1.53-1.6 3.57-2.6 5.25-2.59 1.51 0.02 3.76 0.56 5 1.2 1.24 0.64 5.63 3.92 9.75 7.29 4.13 3.37 10.2 7.87 13.5 10.01 3.3 2.14 16.57 9.48 29.5 16.31 12.93 6.84 28.68 15.37 35 18.97 6.32 3.6 17.8 10.7 25.5 15.79 7.7 5.09 17.43 12.56 21.62 16.61 4.19 4.04 8.35 8.81 9.25 10.6 0.9 1.79 1.4 4.15 1.13 5.25-0.37 1.48-1.34 2-3.75 2.01-1.86 0.01-5.17-1.19-7.75-2.81-2.48-1.56-11.7-7.13-20.5-12.38-8.8-5.25-19.82-11.6-24.5-14.11-4.68-2.51-10.41-5.27-12.75-6.14-4.08-1.51-4.32-1.49-6 0.52-1.72 2.04-1.86 2.05-7.75 0.39-3.3-0.92-8.7-3.41-12-5.52-3.3-2.11-7.13-4.99-11-8.94l2.5-0.83c2.28-0.76 1.67-1.26-7-5.76-5.23-2.71-9.95-5.1-10.5-5.3-0.55-0.21 1.25 1.96 4 4.82 2.75 2.85 7.93 7.26 11.5 9.8 3.57 2.53 7.93 5.76 9.67 7.18 1.74 1.41 5.34 4.12 8 6.01 2.66 1.9 5.73 4.27 6.83 5.28 1.1 1.01 3.53 2.84 5.41 4.06 1.87 1.22 4.35 3.49 5.5 5.04 1.3 1.77 2.09 4.33 2.09 6.84 0 3.13-0.61 4.55-2.75 6.43-1.51 1.32-3.99 2.41-5.5 2.41-1.51 0-5.45-1.63-8.75-3.62-3.3-1.99-7.01-4.02-8.25-4.5-1.24-0.48-2.26-0.54-2.28-0.13-0.01 0.41 1 1.69 2.25 2.85 1.26 1.15 4.76 3.47 7.78 5.16 3.02 1.68 6.18 4.25 7 5.7 1.35 2.37 1.32 3.18-0.25 8.09-0.96 3-2.46 6.13-3.32 6.95-0.87 0.82-2.89 1.5-4.5 1.5-2.15 0-5.52-2.06-12.68-7.77-5.36-4.28-15.09-11.59-21.62-16.25-6.53-4.67-14.73-10.96-18.21-13.98-3.49-3.02-7.82-6.35-12.92-9.29l3.5 3.7c1.93 2.04 8.23 7.39 14 11.89 5.77 4.49 11.18 8.81 12 9.59 0.82 0.78 3.07 2.59 5 4.02 1.93 1.42 9.35 7.38 16.5 13.23 7.15 5.85 14.42 12.15 16.15 14 1.73 1.85 5.5 6.51 8.37 10.36 2.88 3.85 6.37 9.25 7.75 12 1.38 2.75 2.89 6.35 3.36 8 0.48 1.73 0.44 4.49-0.11 6.5-0.53 1.93-2.83 6.65-5.13 10.5-2.3 3.85-8.68 13.07-14.19 20.5-7.77 10.48-15.61 19.09-35.06 38.5-13.78 13.75-27.95 28.15-31.49 32-3.54 3.85-9.24 11.05-12.68 16-3.44 4.95-9.61 14.63-13.71 21.5-4.1 6.88-13.47 22.63-20.83 35-7.36 12.38-19.07 31.05-26.03 41.5-6.97 10.45-16.84 24.63-21.94 31.5-5.1 6.88-13.43 17.45-18.5 23.5-5.08 6.05-16.37 17.97-25.1 26.49-8.72 8.52-20.25 19.89-25.61 25.25-7.58 7.59-10.53 11.37-13.27 17.01-1.94 3.99-3.96 10.06-4.5 13.5-0.64 4.08-0.64 8.42 0 12.5 0.54 3.44 2.52 9.4 4.41 13.25 2.2 4.49 5.59 9.15 9.46 13 3.32 3.3 8.42 7.45 11.34 9.23 2.92 1.78 8.01 4.18 11.31 5.35 3.3 1.16 9.26 2.74 13.25 3.52 3.99 0.77 11.75 1.4 17.25 1.4 5.94 0 13.96-0.79 19.75-1.96 5.36-1.07 11.44-2.65 13.5-3.5 2.06-0.85 7.01-2.3 11-3.23 5.44-1.27 11.74-1.69 25.25-1.66 15.85 0.03 19.49 0.37 30.5 2.79 6.88 1.51 22.18 5.6 34 9.09 11.82 3.48 26.68 7.69 33 9.34 6.32 1.66 17.8 4.38 25.5 6.06 7.7 1.67 21.88 4.44 31.5 6.14 9.63 1.71 23.35 4.58 30.5 6.4 7.15 1.81 17.73 5.15 23.5 7.43 5.77 2.27 14.43 6.49 19.23 9.37 4.81 2.88 11.78 7.74 15.5 10.8 3.73 3.07 9.14 8.69 12.05 12.5 2.9 3.81 6.87 10.08 8.81 13.93 2.28 4.51 3.42 8.07 3.22 10-0.31 2.96-0.39 2.9-6.76-4.5-3.55-4.13-10.3-10.59-15-14.36-5.07-4.06-12.62-8.82-18.55-11.69-5.5-2.65-13.37-5.95-17.5-7.32-4.12-1.37-10.87-3.37-15-4.45-4.12-1.08-14.48-3.11-23-4.53-8.52-1.41-24.05-3.93-34.5-5.6-10.45-1.66-31.15-5.71-46-9-14.85-3.28-33.3-7.13-41-8.56-7.7-1.42-20.52-3.29-28.5-4.14-9.17-0.99-18.08-1.34-24.25-0.96-5.36 0.34-11.89 1.13-14.5 1.76-2.61 0.63-9.02 2.84-14.25 4.91-5.23 2.07-13.32 4.53-18 5.47-6.63 1.33-11.79 1.59-23.5 1.21-10.5-0.35-17.25-1.1-22.5-2.5-4.12-1.1-10.65-3.24-14.5-4.75-3.85-1.51-10.54-4.83-14.88-7.37-4.33-2.54-10.83-7.1-14.45-10.12-3.61-3.02-9.2-8.65-12.42-12.5-3.22-3.85-7.81-10.83-10.2-15.5-2.39-4.67-5.09-10.98-6-14-0.9-3.02-1.91-10-2.24-15.5-0.39-6.43-0.15-12.5 0.68-17 0.71-3.85 2.17-9.25 3.25-12 1.07-2.75 3.99-8.15 6.47-12 3.11-4.83 11.33-13.65 26.53-28.5 12.11-11.83 26.29-26.45 31.51-32.5 5.23-6.05 14.57-17.75 20.76-26 6.2-8.25 17.32-24.23 24.72-35.5 7.39-11.27 20.8-32.42 29.78-47 8.98-14.58 20.02-32.12 24.53-39 4.51-6.87 11.05-16.33 14.52-21 3.48-4.67 10.18-12.49 14.88-17.37 4.71-4.88 15.08-14.33 23.06-21 7.97-6.67 18.48-15.95 23.35-20.63 4.87-4.68 11.25-11.65 14.16-15.5 2.92-3.85 6.47-9.59 7.9-12.75 2.3-5.11 2.46-6.17 1.43-9.5-0.78-2.53-3.95-6.53-9.75-12.31-4.72-4.7-18.04-16.91-29.59-27.12-11.55-10.2-27.39-25.03-35.21-32.94-7.82-7.91-17.19-17.98-20.83-22.38-3.64-4.4-8.53-10.7-10.87-14-2.35-3.3-6.12-9.15-8.38-13-2.27-3.85-4.76-9.48-5.55-12.5-1.05-4.03-1.19-6.97-0.53-11 0.49-3.02 2.01-7.41 3.38-9.75 1.43-2.45 4.29-5.31 6.74-6.74 2.34-1.37 5.49-2.5 7-2.5zm765.25 66.72c2.75 0.26 7.03 1.49 9.5 2.74 2.47 1.24 5.02 3.34 5.66 4.65 0.88 1.81 0.88 3.08 0 5.29-0.64 1.59-2.29 3.7-3.66 4.67-1.38 0.98-5.88 2.52-10 3.43-4.13 0.91-12 2.75-17.5 4.08-5.5 1.33-14.72 4.18-20.5 6.34-5.78 2.16-25.35 9.19-43.5 15.63-18.15 6.43-46.27 16.15-62.5 21.59-16.23 5.45-38.05 12.57-48.5 15.82-10.45 3.25-27.77 8.4-38.5 11.44-10.73 3.04-27.83 7.53-38 9.99-10.17 2.46-24.13 5.61-31 7.01-6.88 1.4-18.13 3.44-25 4.53-6.88 1.09-18.35 2.67-25.5 3.51-7.15 0.84-21.55 1.97-32 2.51-12.61 0.66-24.21 0.65-34.5-0.01-8.52-0.55-19.44-1.67-24.25-2.48-4.81-0.81-9.89-2.03-11.27-2.72-1.39-0.69-2.7-1.7-2.92-2.25-0.21-0.55-0.09-1.57 0.28-2.27 0.36-0.69 2.46-1.68 4.66-2.2 2.2-0.51 13.9-1.41 26-1.99 12.1-0.59 28.08-1.52 35.5-2.08 7.42-0.56 20.02-1.69 28-2.52 7.98-0.82 20.35-2.37 27.5-3.44 7.15-1.07 18.62-3.1 25.5-4.49 6.87-1.4 19.25-4.32 27.5-6.48 8.25-2.17 23.33-6.61 33.5-9.89 10.17-3.27 30.42-10.22 45-15.43 14.58-5.22 36.85-13.4 49.5-18.18 12.65-4.78 36.27-13.65 52.5-19.7 16.23-6.05 35.58-13.01 43-15.46 7.42-2.45 18.67-5.78 25-7.39 6.33-1.62 14.65-3.34 18.5-3.83 3.85-0.49 9.25-0.68 12-0.42zm-292.5 150.91c14.58 0.21 33.7 1.05 42.5 1.86 8.8 0.81 17.8 1.7 20 1.98 2.2 0.28 11.42 1.4 20.5 2.5 9.08 1.09 32.7 3.79 52.5 6 19.8 2.2 40.73 4.5 46.5 5.09 5.77 0.6 14.89 1.73 20.25 2.51 5.36 0.78 12.75 2.43 16.41 3.67 4.24 1.43 7.15 3.07 8 4.5 1.14 1.91 1.11 2.48-0.16 3.75-0.83 0.83-3.41 2.06-5.75 2.73q-4.25 1.24-26.75 1.2c-12.38-0.02-28.35-0.6-35.5-1.28-7.15-0.68-23.13-2.35-35.5-3.72-12.38-1.37-33.08-3.8-46-5.4-12.92-1.61-30.48-3.61-39-4.46-8.52-0.85-22.25-2.06-30.5-2.69-8.25-0.64-30.98-1.24-50.5-1.35-19.52-0.11-38.65 0.16-42.5 0.6-3.85 0.43-12.85 1.24-20 1.8-7.15 0.55-18.17 1.71-24.5 2.56-6.67 0.91-14.23 1.32-18 0.99-3.58-0.32-7.51-0.78-8.75-1.03-1.24-0.25-2.25-1.12-2.25-1.95 0-0.9 2.09-2.25 5.25-3.39 2.89-1.04 12.67-3.32 21.75-5.07 9.08-1.75 24.6-4.26 34.5-5.57 9.9-1.32 26.55-3.09 37-3.95 10.45-0.85 22.37-1.71 26.5-1.91 4.12-0.2 19.42-0.19 34 0.03zm-269.5 3.73c3.1 0.25 7.76 1.78 12.25 4.01 3.99 1.99 9.47 5.76 12.17 8.37 2.71 2.61 5.19 5.99 5.5 7.5 0.33 1.56 0.04 3.42-0.67 4.29-0.69 0.85-2.15 1.53-3.25 1.5-1.1-0.02-4.92-1.42-8.5-3.1-3.58-1.68-8.75-3.72-11.5-4.53-3.85-1.14-5.69-1.22-8-0.38-1.65 0.61-4.06 2.09-5.35 3.29-1.29 1.2-3.38 4.2-4.65 6.68-1.26 2.48-3 7.2-3.85 10.5-0.85 3.3-2.25 12.75-3.11 21-0.86 8.25-2.3 17.92-3.18 21.5-0.89 3.58-2.86 8.98-4.37 12-1.52 3.02-4.94 7.94-7.62 10.91-2.68 2.98-8.47 7.93-12.87 11-4.4 3.08-11.15 8.57-15 12.2-3.85 3.64-9.31 9.94-12.12 14-2.82 4.07-7.04 11.22-9.39 15.89-2.34 4.67-6.26 13.23-8.72 19-2.45 5.77-6.56 14.53-9.12 19.45-2.56 4.93-6.56 10.89-8.9 13.25-2.34 2.37-6.39 5.3-9 6.53-4.47 2.1-6.13 2.24-27.79 2.32-12.67 0.04-23.47 0.41-24 0.82-0.6 0.46-0.06 4.42 1.41 10.43 1.31 5.34 3.94 13.08 5.85 17.2 2.4 5.19 5.21 9.22 9.13 13.07 3.11 3.06 8.8 7.32 12.65 9.46 3.85 2.14 12.85 5.75 20 8.02 7.15 2.28 14.01 4.65 15.25 5.29 1.24 0.64 2.25 2.06 2.25 3.16 0 1.51-1.04 2.27-4.25 3.11-2.59 0.68-7.37 0.86-12.25 0.46-4.4-0.36-10.7-1.34-14-2.17-3.3-0.84-10.27-3.59-15.5-6.12-7.84-3.79-10.91-6.01-17.58-12.69-6.97-6.97-8.87-9.68-13.74-19.59-3.12-6.33-6.8-15.55-8.19-20.5-1.39-4.95-2.52-10.46-2.51-12.25 0.01-1.79 0.65-4.49 1.42-6 0.78-1.51 2.47-3.73 3.75-4.93 1.29-1.2 3.7-2.75 5.35-3.45 1.97-0.82 11.07-1.45 26.5-1.83 21.26-0.52 23.88-0.77 27.5-2.67 2.2-1.15 5.39-3.84 7.09-5.98 1.71-2.14 4.44-6.37 6.07-9.39 1.63-3.02 4.69-9.55 6.8-14.5 2.1-4.95 6.07-13.5 8.82-19 2.74-5.5 6.81-12.7 9.03-16 2.23-3.3 7.23-9.18 11.12-13.06 3.89-3.88 12.43-10.85 18.99-15.5 6.55-4.64 13.24-10.24 14.87-12.44 1.63-2.2 3.78-5.8 4.78-8 1-2.2 2.52-6.7 3.38-10 0.86-3.3 2.48-12.75 3.62-21 1.13-8.25 3.02-18.83 4.21-23.5 1.34-5.29 3.5-10.58 5.73-14 1.96-3.02 5.34-6.85 7.5-8.5 2.16-1.65 5.52-3.57 7.46-4.27 1.94-0.69 5.78-1.08 8.53-0.86zm100 140.66c1.1-0.03 4.25 0.61 7 1.42 2.75 0.8 6.8 2.98 9 4.84 2.22 1.88 5.62 6.46 7.64 10.3 2.65 5.03 4.35 7.11 6.25 7.66 1.44 0.41 5.65 2.18 9.36 3.94 4.99 2.35 8.98 5.41 15.34 11.75 7.58 7.55 9.26 9.92 14.22 20.06 3.56 7.29 7.47 17.72 10.68 28.5 2.79 9.35 5.95 19.36 7.04 22.25 1.08 2.89 3.46 8.29 5.27 12 1.82 3.71 4.84 9 6.72 11.75 1.88 2.75 5.23 6.97 7.45 9.38 2.21 2.41 6.51 6.3 9.53 8.64 3.02 2.34 8.87 6.06 13 8.26 4.12 2.2 11.33 5.19 16 6.64 4.67 1.45 9.85 3.05 11.5 3.55 1.65 0.51 8.85 1.22 16 1.59 7.89 0.4 16.74 0.22 22.5-0.47 5.23-0.62 13.77-2.27 19-3.66 5.23-1.39 13.77-4.34 19-6.56 5.23-2.22 10.85-4.71 12.5-5.53 1.65-0.82 4.8-2.08 7-2.81 2.2-0.73 5.58-1.58 7.5-1.9 1.92-0.32 5.3-0.15 7.5 0.38 2.2 0.53 5.25 2.21 6.78 3.73 1.53 1.52 3.56 4.78 4.5 7.26 1.23 3.22 1.69 7.2 1.61 14-0.1 7.74-0.62 10.79-2.82 16.5-1.48 3.85-4.47 10.38-6.64 14.5-2.16 4.13-7.08 11.66-10.93 16.75-4.01 5.3-8.27 12.35-9.98 16.5-1.63 3.99-4.67 10.03-6.75 13.42-2.07 3.39-5.25 7.89-7.05 10-1.81 2.11-4.88 4.96-6.83 6.33-3 2.12-4.03 3.95-6.72 12-1.75 5.23-5.29 12.88-7.86 17-2.57 4.13-6.79 9.98-9.38 13-2.59 3.02-7.91 8.34-11.82 11.8-3.91 3.47-10.71 8.5-15.11 11.19-4.4 2.68-10.48 5.97-13.5 7.31-3.02 1.34-9.1 3.63-13.5 5.1-4.4 1.46-12.05 3.39-17 4.28-5.98 1.08-14.54 1.62-25.5 1.61-13.06-0.01-18.69-0.48-27-2.21-5.77-1.2-15.9-3.98-22.5-6.18-6.6-2.19-16.95-6.5-23-9.58-6.05-3.07-14.38-7.85-18.5-10.61-4.13-2.76-11.33-8.07-16-11.79-4.67-3.72-11.01-9.39-14.08-12.59-3.07-3.21-7.63-8.31-10.13-11.33-2.5-3.02-6.89-9.1-9.76-13.5-2.86-4.4-7.02-11.83-9.24-16.5-2.23-4.67-5.29-12.33-6.81-17-1.52-4.67-3.55-13.23-4.52-19-1.34-8.02-1.61-13.45-1.15-23 0.39-8.04 1.48-16.07 3.06-22.5 1.36-5.5 4.26-14.5 6.45-20 2.2-5.5 7.19-16.52 11.09-24.5 3.9-7.98 7.99-17.2 9.1-20.5 1.1-3.3 2-8.02 1.98-10.5-0.01-2.48-0.58-6.39-1.26-8.69-0.67-2.3-1.68-4.62-2.23-5.15-0.55-0.53-3.25-1.72-6-2.65-2.75-0.93-9.5-2.12-15-2.65-7.02-0.68-10.53-1.47-11.78-2.66-0.98-0.94-1.77-2.49-1.75-3.45 0.02-0.96 0.75-3.44 1.62-5.5 0.87-2.06 4.59-6.81 14.91-17.35l-1.86-7.7c-1.28-5.27-1.66-9.28-1.22-12.7 0.35-2.75 1.67-7.25 2.92-10 1.25-2.75 3.82-6.23 5.72-7.74 1.89-1.5 5.02-3.02 6.94-3.38 1.92-0.36 5.08-0.15 7 0.46 3.42 1.09 3.63 0.99 9.5-4.5 3.3-3.08 7.58-6.43 9.5-7.43 1.92-1 4.4-1.85 5.5-1.88z"/>
		<path id="Path 3" class="s1" d="m404.5 305.95c2.75 2.85 7.7 7.1 11 9.45 3.3 2.34 6.68 4.63 7.5 5.09 0.82 0.47-0.52-0.99-3-3.24l-4.5-4.09c4.81-1.73 4.28-2.18-4.5-6.73-5.23-2.71-9.95-5.1-10.5-5.3-0.55-0.21 1.25 1.96 4 4.82zm-17.48 20.69c0.81 0.89 3.5 3 5.98 4.68 2.48 1.67 6.52 4.8 9 6.94 2.48 2.15 6.52 5.23 9 6.84 2.48 1.62 4.84 2.93 5.25 2.92 0.41-0.01 0.75-0.92 0.75-2.02 0-1.37-1.92-3.17-6.13-5.75-3.36-2.06-10.11-6.34-15-9.5-4.88-3.16-9.2-5.75-9.6-5.75-0.41 0-0.07 0.74 0.75 1.64zm231.48 320.72c-2.2 0.67-6.25 2.5-9 4.06-2.75 1.56-6.5 4.24-8.34 5.96-1.83 1.72-3.97 4.36-4.75 5.87-0.77 1.51-1.41 4.55-1.41 6.75 0 2.2-0.56 5.12-1.25 6.5-0.69 1.37-2.26 2.94-3.5 3.5-1.24 0.55-2.92 1-3.75 1-0.83 0-3.75 1.8-6.5 4-2.75 2.2-5 4.67-5 5.5 0 1.05 1.44 1.67 4.75 2.05 2.61 0.31 7.11 1.21 10 2 2.89 0.8 5.97 2.24 6.84 3.2 0.97 1.07 1.36 2.62 1 4-0.52 2-0.22 2.25 2.66 2.22 2.1-0.01 4.03 0.79 5.44 2.25 1.21 1.26 2.9 3.97 3.75 6.03 0.95 2.27 1.57 6.81 1.58 11.5 0.02 5.11-0.7 10.13-2.11 14.75-1.17 3.85-4.95 13.3-8.38 21-3.44 7.7-7.64 17.83-9.35 22.5-1.7 4.67-3.79 11.2-4.64 14.5-0.84 3.3-2.06 10.27-2.71 15.5-0.91 7.26-0.91 12.09-0.03 20.5 0.64 6.05 2.32 15.05 3.74 20 1.41 4.95 4.71 13.5 7.31 19 2.61 5.5 7.65 14.27 11.19 19.5 3.55 5.23 10.95 14 16.45 19.51 5.51 5.51 13.39 12.53 17.51 15.62 4.13 3.08 11.1 7.79 15.5 10.45 4.4 2.66 13.4 7.15 20 9.97 6.6 2.83 15.6 6.09 20 7.26 4.4 1.17 12.05 2.82 17 3.67 4.95 0.85 12.83 1.53 17.5 1.53 4.67-0.01 12.55-0.71 17.5-1.56 4.95-0.85 12.6-2.64 17-3.97 4.4-1.33 11.38-4.13 15.5-6.22 4.13-2.09 10.2-5.58 13.5-7.77 3.3-2.18 9.64-7.57 14.08-11.98 4.45-4.4 10.41-11.61 13.26-16.01 2.86-4.4 5.47-9.58 5.82-11.5 0.45-2.53 0.24-3.63-0.77-3.95-0.76-0.25-2.51-1.46-3.89-2.69-2.03-1.82-2.29-2.58-1.41-4.05 0.6-1 5.1-4.03 10-6.75 5.39-2.99 11.32-7.34 15.01-11 3.35-3.33 7.07-7.97 8.25-10.31 1.18-2.34 2.15-5.15 2.15-6.25 0-1.2-1-2.4-2.5-3-1.37-0.55-2.91-1.79-3.42-2.75-0.55-1.06-0.55-2.44 0-3.5 0.51-0.96 3.06-2.99 5.67-4.5 2.61-1.51 7.45-5.16 10.75-8.11 3.3-2.94 7.49-7.45 9.31-10 1.82-2.55 4.2-6.66 5.29-9.14 1.1-2.48 2.64-6.98 3.43-10 0.79-3.02 1.44-7.19 1.45-9.25 0.01-2.06-0.36-4.76-0.83-6-0.46-1.24-1.59-2.59-2.5-3-1.06-0.48-4.97 0.73-10.9 3.38-5.09 2.27-13.75 5.82-19.25 7.9-5.5 2.07-14.95 4.83-21 6.12-9.37 2-13.81 2.35-30 2.34-14.77-0.01-20.89-0.42-27.5-1.87-4.67-1.02-11.87-2.99-16-4.37-4.12-1.38-10.87-4.2-15-6.26-4.12-2.07-11.1-6.43-15.5-9.69-4.4-3.26-10.2-8.38-12.88-11.37-2.68-2.98-6.57-7.91-8.64-10.93-2.07-3.02-5.56-9.1-7.75-13.5-2.19-4.4-5.59-12.95-7.54-19-1.95-6.05-4.97-16.17-6.71-22.5-1.74-6.33-5.09-15.55-7.46-20.5-2.53-5.3-6.34-11.26-9.28-14.5-2.75-3.02-7.64-7.08-10.87-9.01-3.57-2.13-9-4.21-13.87-5.29-4.4-0.98-9.11-2.1-10.47-2.49-1.52-0.44-2.86-1.86-3.49-3.71-0.56-1.65-1.47-3.33-2.03-3.73-0.55-0.41-1.68-0.72-2.51-0.69-0.83 0.03-3.3 0.61-5.5 1.28z"/>
		<path id="Path 4" class="s2" d="m610.96 668.72c-0.75 0.25-1.29 1.2-1.2 2.11 0.08 0.92 0.73 2.23 1.45 2.92 0.71 0.69 2.08 1.03 3.04 0.75 0.96-0.27 1.78-1.38 1.81-2.46 0.03-1.09-0.8-2.37-1.84-2.86-1.04-0.5-2.51-0.7-3.26-0.46z"/>
	</g>
</svg>