<svg version="1.2" xmlns="http://www.w3.org/2000/svg" viewBox="0 0 1308 340" width="1308" height="340">
	<style>
		.s0 { opacity: 1;fill: #ffffff } 
	</style>
	<path id="Path 0" fill-rule="evenodd" class="s0" d="m87.01 17.9c-2.91 2.64-3.19 3.41-3.11 8.5 0.06 3.08 0.55 5.6 1.1 5.6 0.55 0 1 0.9 1 2 0 1.1 0.45 2 1 2 0.55 0 1 0.56 1 1.25 0 0.69 1.14 2.6 2.53 4.25 1.39 1.65 2.52 3.34 2.5 3.75-0.02 0.41 3.12 3.9 6.97 7.75 3.85 3.85 7 7.45 7 8 0 0.55 0.45 1 1 1 0.55 0 5.28 4.28 10.5 9.5 5.22 5.22 9.95 9.5 10.5 9.5 0.55 0 1 0.45 1 1 0 0.55 1.79 2.69 3.97 4.75 2.18 2.06 3.98 4.31 4 5 0.02 0.69 0.59 1.24 1.28 1.22 0.7-0.01 0.27 0.98-0.98 2.25-1.22 1.26-2.24 2.84-2.25 3.53-0.01 0.69-0.47 1.25-1.02 1.25-0.55 0-0.89 0.56-0.75 1.25 0.14 0.69-0.31 1.14-1 1-0.69-0.14-1.27 0.54-1.29 1.5-0.02 0.96-0.84 2.42-1.82 3.25-0.98 0.83-2.09 2.29-2.46 3.25-0.37 0.96-1.58 1.75-2.68 1.75-1.17 0-2.21 0.83-2.5 2-0.28 1.1-1.18 2-2 2-0.83 0-5.55 4.05-10.5 9-4.95 4.95-9.22 9.9-9.5 11-0.28 1.1-0.84 1.98-1.25 1.96-0.41-0.02-1.43 1.35-2.25 3.04-0.83 1.69-1.84 3.06-2.25 3.04-0.41-0.02-0.97 0.86-1.25 1.96-0.28 1.1-1.29 2.77-2.25 3.71-0.96 0.95-2.29 3.31-2.96 5.25-0.66 1.95-1.22 2.86-1.25 2.04-0.03-0.82-0.74-0.15-1.58 1.5-0.84 1.65-1.51 3.56-1.49 4.25 0.02 0.69-0.65 1.25-1.47 1.25-0.83 0-1.8 1.24-2.16 2.75-0.36 1.51-1.47 3.43-2.46 4.25-0.99 0.82-1.81 2.18-1.83 3-0.02 0.82-0.94 2.18-2.05 3-1.11 0.82-2.02 2.51-2.01 3.75 0.01 1.42-0.73 2.43-1.99 2.75-1.17 0.29-2 1.33-2 2.5 0 1.1-0.45 2-1 2-0.55 0-1 0.45-1 1 0 0.55-0.79 1.87-1.75 2.93-0.96 1.06-2.23 2.52-2.82 3.25-0.59 0.73-1.67 2.45-2.41 3.82-0.73 1.38-2.15 3.18-3.14 4-0.99 0.82-1.82 2.06-1.84 2.75-0.02 0.69-1.84 3.05-4.04 5.25-2.2 2.2-4 4.22-4 4.5 0 0.28-1.32 1.85-2.92 3.5-1.61 1.65-3.41 3-4 3-0.6 0-1.08 0.68-1.08 1.5 0 0.82-0.45 1.5-1 1.5-0.55 0-3.7 2.7-7 6-3.3 3.3-6 6.45-6 7 0 0.55-0.9 1.22-2 1.5-1.6 0.4-2 1.34-2.02 4.75 0 2.34-0.34 3.68-0.75 2.98-0.51-0.89-1.1-0.52-1.98 1.25-0.69 1.39-1.26 4.88-1.26 7.77-0.01 2.89 0.33 6.72 0.75 8.52 0.42 1.8 1.32 3.27 2.01 3.25 0.73-0.01 1.25 1.23 1.25 2.98 0 1.65 0.34 2.98 0.75 2.96 0.41-0.02 1.31 1.22 1.98 2.75 0.68 1.53 2.37 3.8 3.75 5.04 1.39 1.24 2.52 2.7 2.52 3.25 0 0.55 0.45 1 1 1 0.55 0 2.12 1.13 3.5 2.5 1.37 1.38 3.4 2.73 4.5 3 1.1 0.27 1.99 0.84 1.97 1.25-0.01 0.41 1.11 1.31 2.5 2 1.39 0.69 3.73 1.25 5.2 1.25 1.46 0 2.34 0.34 1.94 0.75-0.39 0.41 1.22 1.31 3.59 1.98 2.36 0.68 7.22 1.23 10.8 1.21 3.57-0.01 8.53-0.42 11-0.9 2.47-0.49 4.61-1.37 4.75-1.96 0.14-0.59 1.6-1.08 3.25-1.08 1.65 0 3-0.45 3-1 0-0.55 1.35-1 3-1 1.65 0 3-0.45 3-1 0-0.55 2.25-1 5-1q4.99 0 5.02 1.25 0.02 1.22 0.89-0.25 0.87-1.49 1.23-0.34c0.2 0.64 2.39 1.4 4.86 1.69 2.47 0.28 7.28 0.88 10.67 1.33 3.57 0.47 5.89 1.22 5.5 1.77-0.37 0.53 0 0.71 0.83 0.41 0.82-0.29 3.53-0.02 6 0.62 2.47 0.64 6.97 1.28 10 1.43 3.03 0.15 5.72 0.57 6 0.93 0.28 0.37 2.07 1.23 4 1.9 2.46 0.87 12.16 1.24 32.75 1.25 16.09 0 29.25 0.35 29.26 0.76 0 0.41 1.24 1.32 2.75 2.01 1.51 0.69 4.43 1.26 6.49 1.25 2.22-0.01 4.87 0.82 6.5 2.02 1.51 1.12 4.21 2.02 6 2 2.43-0.02 3.38 0.47 3.75 1.97 0.43 1.72 1.33 2 6.5 2 5.11 0 6.22 0.33 7.51 2.25 0.83 1.24 1.5 1.69 1.5 1-0.01-0.69 0.47-1.25 1.06-1.25 0.59 0 1.72-0.68 2.5-1.5 0.79-0.82 1.43-2.18 1.43-3 0-0.82 0.45-1.73 1-2 0.55-0.27 1-2.07 1-4 0-2.41-0.62-3.89-2-4.75-1.1-0.69-1.7-1.59-1.33-2 0.36-0.41 0.25-0.76-0.25-0.78-0.51-0.02-1.7-0.58-2.65-1.25-0.94-0.67-1.99-2.57-2.32-4.22-0.33-1.65-1.22-3.68-1.99-4.5-0.77-0.82-2.77-2.96-4.43-4.75-1.67-1.79-3.37-3.27-3.78-3.29-0.41-0.02-1.43-0.85-2.25-1.85-0.82-0.99-3.98-2.39-7-3.1-3.03-0.72-5.82-1.8-6.22-2.41-0.4-0.6-1.97-1.22-3.5-1.37-1.53-0.15-4.92-0.49-7.53-0.75-2.61-0.27-4.75-0.93-4.75-1.48 0-0.55-0.9-1-2-1-1.1 0-2.23-0.45-2.5-1-0.28-0.55-3.88-1-8-1-4.21 0-7.61-0.44-7.75-1.01-0.14-0.55-1.38-1.32-2.75-1.7-1.38-0.38-9.25-0.86-17.5-1.07-12.77-0.32-15.19-0.14-16.25 1.2-1 1.26-1 1.88 0 3.07 0.7 0.83 3.45 1.65 6.25 1.86 2.75 0.2 5.9 0.59 7 0.87 1.1 0.28 3.01 1.02 4.25 1.65 1.73 0.87 2.35 0.84 2.67-0.12 0.34-1 0.44-1 0.5 0 0.05 0.82 1.79 1.25 5.08 1.25 2.75 0 5 0.45 5 1 0 0.55 0.9 1 2 1 1.1 0 2 0.45 2 1 0 0.55 1.46 1 3.25 1.01 1.79 0 4.94 0.45 7 1 2.06 0.54 3.75 1.33 3.74 1.74 0 0.41 2.81 1.01 6.25 1.34 3.44 0.32 7.83 1.34 9.76 2.27 1.93 0.92 4.06 1.67 4.75 1.66 0.69-0.01 3.05 0.54 5.25 1.23 2.2 0.69 3.98 1.48 3.96 1.75-0.02 0.27 1.35 1.18 3.04 2 1.69 0.82 3.06 2.06 3.04 2.75-0.02 0.69 0.59 1.59 1.36 2 0.78 0.41 1.51 1.43 1.62 2.25 0.12 0.82 0.16 2.06 0.1 2.75-0.07 0.69-0.8 1.25-1.62 1.25-0.82 0-1.5-0.45-1.5-1 0-0.55-1.13-1-2.5-1-1.38 0-2.73-0.45-3-1-0.28-0.55-2.98-1-6-1-3.03 0-6.64-0.56-8.03-1.25-1.39-0.69-2.51-1.59-2.5-2 0.02-0.41-2.78-0.95-6.22-1.19-3.44-0.24-9.18-0.96-12.75-1.59-3.57-0.63-16.18-1.5-28-1.94-11.82-0.44-22.74-1.07-24.25-1.41-1.51-0.34-2.75-1.07-2.75-1.62 0-0.55-1.35-1-3-1-1.65 0-5.14-0.56-7.75-1.23-2.61-0.68-4.98-1.52-5.25-1.87-0.28-0.34-1.85-0.87-3.5-1.17-1.65-0.3-4.35-0.84-6-1.21-1.65-0.36-3.32-1.19-3.71-1.84-0.51-0.83-5.64-1.18-17.29-1.18-11.79 0-16.78 0.35-17.29 1.2-0.39 0.65-2.96 1.68-5.71 2.27-2.75 0.6-8.15 0.89-12 0.66-3.85-0.24-8.01-0.7-9.25-1.03-1.24-0.33-2.25-1.05-2.25-1.6 0-0.55-1.13-1.23-2.5-1.5-1.38-0.27-3.51-1.53-4.75-2.8-1.24-1.26-3.04-2.61-4-3-1.01-0.4-1.75-1.75-1.75-3.2 0-1.37-0.45-2.5-1-2.5-0.55 0-1.27-1.46-1.59-3.25-0.32-1.79-0.32-4.94 0-7 0.32-2.06 1.04-3.53 1.59-3.25 0.55 0.28 1.22-0.62 1.5-2 0.27-1.37 1.62-3.62 3-5 1.37-1.37 2.5-2.95 2.5-3.5 0-0.55 0.67-1 1.5-1 0.82 0 1.92-1.01 2.44-2.25 0.51-1.24 0.96-1.91 1-1.5 0.03 0.41 1.21-0.37 2.61-1.75 1.4-1.37 2.97-2.5 3.5-2.5 0.52 0 0.95-0.45 0.95-1 0-0.55 1.33-2.24 2.97-3.75 1.63-1.51 2.64-3.1 2.25-3.53-0.4-0.43-0.05-0.78 0.78-0.79 0.82-0.01 2.85-1.82 4.5-4.02 1.65-2.2 4.01-5.1 5.25-6.45 1.24-1.35 2.25-2.68 2.25-2.96 0-0.28 0.79-1.45 1.75-2.61 0.96-1.16 2.31-2.74 3-3.5 0.69-0.77 1.23-1.73 1.22-2.14-0.02-0.41 1.33-2.21 3-4 1.66-1.79 3.04-3.81 3.06-4.5 0.02-0.69 0.58-2.03 1.25-2.99 0.67-0.95 1.57-1.4 2-1 0.43 0.41 0.76-0.05 0.75-1.01-0.02-0.96 0.53-2.75 1.22-3.96 0.69-1.22 1.81-2.79 2.5-3.5 0.69-0.71 1.47-2.19 1.75-3.29 0.27-1.1 0.95-2 1.5-2 0.55 0 1.56-1.58 2.25-3.51 0.69-1.94 1.59-3.51 2-3.5 0.41 0 0.75-0.67 0.75-1.49 0-0.82 0.45-1.5 1-1.5 0.55 0 1-0.79 0.99-1.75-0.01-0.96 0.9-2.43 2.01-3.25 1.18-0.88 2.02-2.64 2.01-4.25-0.01-1.92 0.59-2.9 1.99-3.25q2-0.5 2-3c0-1.56 0.57-2.5 1.5-2.5 0.82 0 1.82-0.79 2.21-1.75 0.39-0.96 3.99-5.01 8-9 4.01-3.99 7.74-7.25 8.29-7.25 0.55 0 1-0.45 1-1 0-0.55 2.25-3.25 5-6 2.75-2.75 5-5.45 5-6 0-0.55 1.57-2.57 3.5-4.5 1.93-1.92 3.5-3.95 3.5-4.5 0-0.55 0.68-1.67 1.5-2.5 0.82-0.82 1.52-1.16 1.54-0.75 0.02 0.41 0.73-0.82 1.57-2.75 0.84-1.92 2.06-3.82 2.71-4.21 0.69-0.42 1.07-2.5 0.92-5q-0.26-4.28-2.21-5.79c-1.07-0.82-1.96-2.17-1.98-3-0.02-0.82-0.94-2.17-2.05-3-1.62-1.2-2.02-2.63-2.01-7.25 0.01-4 0.59-6.59 1.91-8.5 1.04-1.51 1.99-4.1 2.1-5.75 0.12-1.65 0.16-3.79 0.11-4.75-0.06-0.96-0.9-1.97-1.86-2.24-0.96-0.27-1.75-1.39-1.75-2.5 0-1.53 0.66-2.01 2.75-2.01 1.51 0 2.75 0.45 2.75 1 0 0.55 1.24 1 2.75 1 1.67-0.01 3.24 0.78 4 2 0.69 1.1 2.15 2 3.25 2 1.1 0 2.56 0.9 3.25 2 0.69 1.11 2.04 2.01 3 2 0.96 0 2.31 0.87 3 1.94 0.75 1.17 2.64 2.06 4.75 2.25 3.3 0.29 3.51 0.13 3.75-2.94 0.15-1.91-0.16-3.04-0.75-2.75-0.55 0.28-1 0.05-1-0.5 0-0.55-1.57-2.57-3.5-4.5-1.93-1.92-4.06-3.5-4.75-3.5-0.69 0.01-1.81-0.89-2.5-2-0.69-1.1-2.04-2-3-1.99-0.96 0.01-2.43-0.9-3.25-2.01-0.82-1.11-2.37-2.02-3.43-2.01-1.07 0.01-2.42-0.82-3-1.83-0.59-1.01-2.31-2.13-3.82-2.5-1.51-0.36-3.43-1.33-4.25-2.16-0.82-0.82-2.06-1.5-2.75-1.49-0.69 0.01-1.93-0.9-2.75-2.01-0.82-1.11-2.06-2.02-2.75-2.01-0.69 0.01-4.06-1.42-7.5-3.17-3.44-1.75-7.38-4.39-8.75-5.88-1.38-1.48-3.4-2.8-4.5-2.93-1.1-0.13-2.9-0.21-4-0.16-1.18 0.04-2.51 1.21-3.24 2.86-0.78 1.76-2.26 3-4 3.37-1.69 0.36-3.25 0.06-4.01-0.75-0.69-0.73-2.13-1.53-3.2-1.77-1.07-0.25-2.42-0.7-3-1-0.58-0.31-0.83-1.01-0.55-1.56 0.27-0.55-0.18-1.22-1-1.5-0.83-0.27-3.03-0.5-4.89-0.5-2.34 0-4.39 0.9-6.6 2.9zm1070.03 65.22l-3.45 0.94 0.41 65.94c5.81 1.54 8.18 2 9 2.01 0.83 0.01 2.96-0.43 4.75-0.99l3.25-1.02c-0.03-18.75 0.39-23.09 1.23-24.28 1.15-1.61 1.64-1.65 5.27-0.41 2.59 0.89 4.53 2.39 5.5 4.27 0.83 1.59 2.08 3.34 2.78 3.9 0.7 0.56 1.83 1.97 2.5 3.13 0.67 1.17 2.23 3.98 3.47 6.25 1.24 2.28 2.7 4.14 3.25 4.14 0.55 0 1 0.68 1 1.5 0 0.82 0.56 1.81 1.25 2.18 0.69 0.37 4.85 0.55 9.25 0.4 4.4-0.15 8.68-0.27 9.5-0.27 0.83 0 3.3 0.26 5.5 0.59 2.2 0.32 5.35 0.22 7-0.23 2.24-0.62 3.14-1.57 3.57-3.75 0.31-1.6 1.41-4.27 2.45-5.92 1.03-1.65 1.9-3.14 1.93-3.3 0.03-0.17 4.89-0.28 10.8-0.25 6.54 0.03 10.75-0.34 10.75-0.95 0-0.55 0.34-0.83 0.75-0.63 0.41 0.21 1.37 2.57 2.13 5.25 1.01 3.58 1.6 4.48 2.23 3.38 0.67-1.17 0.86-1 0.87 0.75 0.01 1.24 1.03 3.22 2.27 4.4 1.92 1.84 3.06 2.08 7.75 1.64 3.03-0.29 5.61-1.03 5.75-1.66 0.14-0.62 0.7-0.91 1.25-0.63 0.55 0.28 1-0.18 1-1 0-0.82-0.45-1.28-1-1-0.55 0.28-1.32-1.41-1.72-3.75-0.4-2.34-1.3-4.81-2-5.5-0.7-0.69-1.82-3.61-2.48-6.5-0.66-2.89-1.67-5.54-2.25-5.89-0.58-0.35-1.39-2.71-1.8-5.25-0.41-2.53-1.09-4.6-1.5-4.58-0.41 0.01-1.31-1.11-2-2.5-0.69-1.39-1.25-3.65-1.25-5.03 0-1.37-0.67-3.17-1.5-4-0.82-0.82-1.94-3.64-2.47-6.25-0.54-2.61-1.69-5.42-2.55-6.25-0.86-0.82-1.54-2.4-1.51-3.5 0.04-1.1-0.51-2.84-1.2-3.87-0.99-1.46-2.81-1.95-8.27-2.23-4.63-0.24-7.43 0.05-8.26 0.87-0.7 0.68-1.52 2.36-1.83 3.73-0.31 1.38-1.15 3.18-1.87 4-0.71 0.83-1.58 3.64-1.92 6.25-0.34 2.61-0.96 4.74-1.37 4.72-0.41-0.01-1.31 1.11-2 2.5-0.69 1.39-1.25 3.43-1.25 4.53 0 1.1-0.67 2.68-1.5 3.5-0.82 0.83-1.95 3.97-2.5 7-0.55 3.03-1.61 5.84-2.35 6.25-0.75 0.41-1.64 2.78-1.99 5.25-0.35 2.47-1.27 5.18-2.05 6-0.77 0.82-1.66 3.3-1.97 5.5-0.31 2.2-0.58 4.11-0.6 4.25-0.02 0.14-0.71 0.25-1.54 0.25-0.82 0-1.5-0.45-1.5-1 0-0.55-0.67-1-1.5-1-0.89 0-1.7-1.22-2-3-0.28-1.65-1.4-3.45-2.5-4-1.1-0.55-1.98-1.79-1.96-2.75 0.03-0.96-0.7-2.43-1.62-3.25-0.91-0.82-2.28-2.74-3.04-4.25-0.76-1.51-2.28-2.97-3.38-3.25-1.72-0.43-1.83-0.77-0.75-2.44 0.69-1.06 1.59-1.73 2-1.5 0.41 0.24 0.97-0.23 1.25-1.06 0.28-0.82 1.18-1.5 2-1.5 0.83 0 2.28-1.24 3.24-2.75 0.95-1.51 2.3-3.31 3-4 0.79-0.78 1.28-4.14 1.3-9 0.04-6.03-0.32-8.08-1.63-9.25-0.92-0.82-2.06-2.51-2.54-3.75-0.48-1.24-1.99-2.47-3.37-2.75-1.37-0.28-2.5-1.06-2.49-1.75 0.01-0.79-2.3-1.53-6.25-2.01-3.44-0.41-12.33-0.71-19.76-0.66-7.42 0.06-15.06 0.52-16.96 1.04zm13.02 8.82l6.72 0.66c3.7 0.36 8.75 1.64 11.22 2.84 3.58 1.74 4.77 3 5.82 6.13 0.73 2.17 1.06 5.5 0.74 7.43-0.33 1.93-1.15 4.08-1.83 4.79-0.86 0.91-4.43 1.29-22.73 1.21l0.03-11.53zm70.48 20.03c5.02-9.97 5.74-10.92 7.5-10 1.21 0.63 2.77 3.62 4.08 7.78 1.17 3.71 2.97 8.21 5.88 13.25l-2.5 1c-1.38 0.55-5.65 1-9.5 1-3.85 0-7.9-0.45-9-1-1.92-0.96-1.76-1.47 3.54-12.03zm-974.88 69c-0.25 0.54-0.83 3.25-1.3 6.02-0.47 2.77-1.09 5.02-1.36 5.01-0.28-0.01-1.14 2.12-1.92 4.74-0.78 2.62-2.22 5.43-3.21 6.26-0.98 0.82-1.81 2.06-1.83 2.75-0.02 0.69-0.94 1.81-2.04 2.5-1.11 0.69-2.01 1.81-2 2.5 0 0.69-0.9 1.81-2 2.5-1.11 0.69-2.01 2.04-2 3 0 0.96-0.34 1.86-0.75 2-0.41 0.14-1.54 1.71-2.5 3.5-0.96 1.79-1.75 3.92-1.75 4.75 0 0.82-0.6 2.06-1.33 2.75-0.73 0.69-1.71 3.72-2.19 6.75-0.47 3.02-0.89 8.87-0.92 13-0.03 4.12 0.3 9.97 0.74 13 0.44 3.02 1.11 5.72 1.5 6 0.38 0.27 1.26 1.51 1.95 2.75 0.69 1.24 1.24 2.81 1.24 3.5-0.01 0.69 0.9 1.92 2.01 2.75 1.11 0.82 2.01 2.17 2 3-0.01 0.82 0.89 2.17 2 3 1.11 0.82 2.02 2.29 2.01 3.25-0.01 0.96 0.33 1.69 0.74 1.63 0.41-0.07 1.31-0.07 2 0 0.69 0.06 1.25 1.02 1.25 2.12q0 2 2 2c1.11 0 2 0.66 2 1.5 0 0.82 0.79 1.81 1.75 2.19 0.96 0.38 3.44 2.41 5.5 4.5 2.06 2.1 4.09 3.79 4.5 3.77 0.41-0.02 3 2 5.75 4.49 2.75 2.49 5.22 4.32 5.5 4.08 0.27-0.24 2.19 1.34 4.25 3.51 2.25 2.38 4.67 3.96 6.05 3.96 1.26 0 2.8-0.56 3.41-1.25 0.81-0.92 0.79-2.16-0.05-4.64-0.64-1.87-1.82-3.67-2.62-4-0.81-0.34-4.3-3.42-7.75-6.86-3.46-3.44-6.74-6.25-7.29-6.25-0.55 0-1-0.68-1-1.5 0-0.83-0.68-1.5-1.5-1.5-0.83 0-4.54-3.12-8.25-6.93-3.71-3.81-7.43-7.73-8.25-8.71-0.83-0.98-2.05-2.71-2.71-3.83-0.67-1.12-1.74-3.16-2.38-4.53-0.64-1.38-1.67-3.63-2.28-5-0.62-1.38-1.58-2.82-2.13-3.22-0.57-0.41-1-5.91-1-12.91 0-8.92 0.34-12.29 1.25-12.54 0.69-0.18 1.25-1.23 1.25-2.33 0-1.1 0.45-2 1-2 0.55 0 0.95-0.34 0.88-0.75-0.06-0.41-0.06-2.21 0-4 0.07-1.8 0.57-3.03 1.12-2.75 0.55 0.27 1.29-0.29 1.65-1.25 0.36-0.96 0.81-2.43 1.01-3.25 0.19-0.83 1.23-2.18 2.3-3 1.08-0.83 1.98-2.29 2-3.25 0.02-0.96 0.94-2.31 2.04-3 1.1-0.69 2-1.81 2-2.5 0-0.69 0.83-2.49 1.85-4 1.01-1.51 2.36-4.89 3-7.5 0.63-2.61 1.15-6.33 1.15-8.25 0-1.93-0.45-3.73-1-4-0.55-0.28-1-1.4-1-2.5 0-1.32-0.67-2-1.95-2-1.08 0-2.15 0.44-2.39 0.97zm190.16-121.96c-0.18 0.56-3.13 1.57-6.55 2.24-3.43 0.67-6.58 1.5-7 1.84-0.43 0.33-1.67 1.09-2.77 1.69-1.1 0.59-3.69 1.22-5.75 1.4-2.07 0.17-3.75 0.54-3.75 0.82 0 0.27-1.8 1.06-4 1.75-2.2 0.69-5.35 1.25-7 1.25-1.65 0-3 0.34-3 0.75 0 0.41-1.8 1.31-4 2-2.2 0.69-5.35 1.25-7 1.25-1.65 0-2.99 0.34-2.97 0.75 0.01 0.41-1.11 1.31-2.5 2-1.39 0.69-3.66 1.25-5.03 1.25-1.38 0-2.5 0.34-2.5 0.75 0 0.41-0.56 0.82-1.25 0.91-0.69 0.08-2.6 0.63-4.25 1.22-1.65 0.58-4.24 1.3-5.75 1.59-1.51 0.29-3.39 1.2-4.18 2.03-0.79 0.82-2.14 1.5-3 1.5-0.86 0-3.37 0.56-5.57 1.25-2.2 0.69-4 1.59-4 2 0 0.41-1.01 0.75-2.25 0.76-1.24 0.01-3.83 0.57-5.75 1.24-1.93 0.68-3.73 1.49-4 1.79-0.28 0.31-2.3 1.09-4.5 1.74-2.2 0.65-5.24 1.19-6.75 1.2-1.51 0.01-2.75 0.47-2.75 1.02 0 0.55-2.81 1.44-6.25 1.99-3.44 0.55-8.05 1-10.25 1.02-2.2 0.01-3.47 0.35-2.81 0.75 0.65 0.41-3.62 1.3-9.5 1.98-5.88 0.69-18.57 1.3-28.19 1.37-9.63 0.07-17.95 0.49-18.5 0.93-0.55 0.45-3.16 0.96-5.79 1.14-3.43 0.23-5.28 0.92-6.5 2.44-1.64 2.03-1.61 2.17 0.54 3.25 1.24 0.62 4.16 1.42 6.5 1.78 2.34 0.36 4.47 1.06 4.75 1.57 0.27 0.5 6.57 0.93 14 0.96 7.42 0.03 15.19 0 17.25-0.06 2.06-0.07 3.56-0.46 3.33-0.87-0.22-0.41 3.94-1.13 9.25-1.59 5.32-0.46 10.79-0.99 12.17-1.17 1.37-0.18 3.4-0.37 4.5-0.42 1.27-0.07 1.57-0.37 0.82-0.84-0.64-0.4 3.18-1.34 8.5-2.08 5.32-0.74 9.9-1.68 10.18-2.09 0.27-0.42 2.52-1.09 5-1.49 2.47-0.41 6.3-0.96 8.5-1.23 2.2-0.28 4.22-0.84 4.5-1.26 0.27-0.42 2.64-1.28 5.25-1.92 2.61-0.64 6.1-1.16 7.75-1.16 1.65 0 2.99-0.34 2.97-0.75-0.02-0.41 1-1.23 2.25-1.81 1.25-0.59 4.3-1.19 6.78-1.35 2.47-0.15 4.72-0.65 5-1.11 0.27-0.46 1.74-1.31 3.25-1.91 1.51-0.59 4.55-1.07 6.75-1.07 2.2 0 3.99-0.34 3.97-0.75-0.02-0.41 1.11-1.31 2.5-2 1.39-0.69 3.99-1.25 5.78-1.26 1.79 0 4.71-0.9 6.5-2 1.84-1.13 5.4-2.1 8.21-2.24 3.38-0.17 5.38-0.82 6.25-2.01 0.74-1.01 2.58-1.76 4.29-1.76 1.65-0.01 4.57-0.56 6.5-1.24 1.92-0.68 3.72-1.55 4-1.93 0.27-0.38 2.19-0.83 4.25-1 2.07-0.17 3.75-0.54 3.75-0.81 0-0.28 1.46-0.63 3.25-0.78 1.79-0.16 3.36-0.72 3.5-1.25 0.14-0.54 1.15-0.97 2.25-0.97 1.1 0 4.93-0.56 8.5-1.25 3.58-0.69 6.51-1.59 6.5-2 0-0.41 0.71-0.75 1.57-0.75 0.86 0 2.21-0.68 3-1.5 0.79-0.83 1.43-1.95 1.43-2.5 0-0.55-0.68-1.68-1.5-2.5-0.83-0.83-2.18-1.5-3-1.5-0.83 0-1.5-0.45-1.5-1 0-0.61-4.65-1-11.93-1-7.19 0-12.06 0.4-12.25 1.01zm75.68 24.18c-1.1 0.59-2.79 2.8-3.75 4.93-0.96 2.14-1.75 4.55-1.75 5.38 0 0.82-0.68 2.17-1.5 3-0.83 0.82-1.77 3.41-2.11 5.75-0.33 2.34-1.22 4.92-1.96 5.75-0.75 0.82-1.81 3.75-2.37 6.5-0.55 2.75-1.68 5.67-2.51 6.5-0.82 0.82-1.51 2.51-1.53 3.75-0.01 1.24-0.58 3.39-1.27 4.78-0.69 1.39-1.59 2.51-2 2.5-0.41-0.02-0.74 0.98-0.73 2.22 0 1.24-0.52 3.82-1.17 5.75-0.65 1.92-1.52 3.72-1.93 4-0.41 0.27-1.01 1.74-1.34 3.25-0.43 2.03-0.12 2.95 1.17 3.53 0.96 0.43 2.87 0.73 4.25 0.67 1.37-0.06 3.85-0.18 5.5-0.26 1.65-0.09 3.8-0.73 4.79-1.43 1.08-0.76 2.07-3.24 2.51-6.26 0.64-4.4 1.02-5.02 3.21-5.18 1.37-0.09 6.99-0.27 12.49-0.4 5.5-0.12 10.56 0.07 11.25 0.43 0.69 0.36 1.25 1.44 1.25 2.4 0.01 0.96 0.46 3.44 1 5.5 0.8 2.99 1.66 3.95 4.25 4.76 1.79 0.55 5.27 0.8 7.75 0.56 2.47-0.25 4.86-0.82 5.29-1.26 0.44-0.45 0.55-2.5 0.25-4.56-0.3-2.06-0.99-3.75-1.54-3.75-0.55 0-1.46-1.46-2.02-3.25-0.56-1.79-0.99-4.15-0.96-5.25 0.02-1.1-0.89-2.9-2.02-4q-2.07-2-2.03-5.75c0.01-2.06-0.31-3.74-0.72-3.72-0.41 0.01-1.31-1.11-2-2.5-0.69-1.39-1.24-3.32-1.22-4.28 0.02-0.96-0.81-2.88-1.84-4.25-1.04-1.38-2.18-4.3-2.55-6.5-0.36-2.2-1.28-4.68-2.04-5.5-0.76-0.83-1.66-3.41-1.99-5.75-0.36-2.47-1.24-4.46-2.11-4.75-0.83-0.28-1.5-1.18-1.5-2 0-0.83-1.01-1.72-2.25-1.99-1.24-0.27-4.05-0.46-6.25-0.43-2.2 0.03-4.9 0.53-6 1.11zm3.15 16.56c0.92-2.61 2.12-4.75 2.67-4.75 0.55 0 2.16 1.91 3.56 4.25 1.41 2.34 3.82 6.84 5.34 10 1.53 3.16 3.12 7.74 3.53 10.17 0.74 4.38 0.71 4.43-2.25 4.75-1.65 0.18-7.16 0.22-21.5-0.17l3.51-7.25c1.92-3.99 3.5-8.38 3.49-9.75-0.01-1.38 0.74-4.64 1.65-7.25zm44.4-16.62c-1.22 1.06-1.43 6.49-1.3 33.82 0.13 25.31 0.45 32.77 1.45 33.55 0.82 0.63 9.07 0.81 22.37 0.5 18.36-0.44 21.29-0.73 22.75-2.25 0.93-0.96 2.47-1.96 3.43-2.21 0.96-0.25 2.31-1.6 3-3 0.69-1.4 1.25-3.22 1.25-4.04 0-0.83 0.47-1.61 1.04-1.75 0.57-0.14 1.36-2.82 1.75-5.95 0.61-4.93 0.47-5.77-1.04-6.25-0.96-0.3-1.75-1.34-1.75-2.3 0-0.96-1.02-2.97-2.25-4.46-1.24-1.49-3.04-2.73-4-2.75-0.96-0.02-1.75-0.49-1.75-1.04 0-0.55 0.67-1.23 1.5-1.5 0.82-0.28 1.49-1.06 1.49-1.75-0.01-0.69 0.81-1.93 1.82-2.75 1.39-1.14 1.89-3.09 2.05-8 0.17-5.37-0.16-6.94-1.91-9-1.17-1.38-2.42-2.95-2.79-3.5-0.36-0.55-2.24-2.13-4.16-3.5-3.39-2.43-4.08-2.51-22.5-2.82-14.27-0.23-19.36 0-20.45 0.95zm9 9.53c0.8-0.28 5.95-0.51 11.45-0.53 5.5-0.01 11.57 0.52 13.5 1.17 2.34 0.8 4.16 2.4 5.5 4.85 1.71 3.13 1.82 4.04 0.75 6.25-0.69 1.43-2.49 3.36-4 4.3-1.62 1-6.26 2.02-11.25 2.49-4.68 0.43-10.41 1.01-17 1.81l-0.2-9.92c-0.16-7.89 0.09-10.02 1.25-10.42zm0.03 34.29c1.04-1.97 1.65-2.03 14.75-1.41 10.68 0.5 14.22 1.03 16.17 2.4 1.37 0.97 2.9 2.84 3.39 4.16 0.49 1.32 0.6 3.64 0.25 5.15-0.52 2.22-1.54 3.02-5.39 4.16-2.61 0.78-8.8 1.65-13.75 1.95-4.95 0.29-10.13 0.3-11.5 0.02-2.22-0.45-2.64-1.3-3.75-7.45-0.91-5.04-0.96-7.49-0.17-8.98zm74-42.7c-1.13 1.27-2.23 4.32-2.54 7-0.3 2.61-1.1 4.91-1.79 5.1-0.69 0.2-1.59 2.45-2 5-0.41 2.56-1.36 5.21-2.11 5.9-0.75 0.69-1.87 3.84-2.5 7-0.63 3.18-1.59 5.52-2.14 5.25-0.55-0.28-1.29 1.41-1.64 3.75-0.36 2.34-1.72 6.27-3.03 8.75-1.31 2.47-2.37 5.51-2.35 6.75 0.01 1.24-0.43 2.47-0.98 2.75-0.55 0.27-1.45 2.07-2 4-0.83 2.92-0.71 3.73 0.75 4.87 1.02 0.79 3.62 1.27 6.25 1.13 2.47-0.13 5.71-0.86 7.2-1.62 2.19-1.12 2.8-2.27 3.25-6.13 0.3-2.61 1.11-5.07 1.8-5.45 0.69-0.39 5.97-0.64 11.75-0.56 5.77 0.08 11.29 0.17 12.25 0.2 1.07 0.04 2.14 1.31 2.77 3.31 0.55 1.79 1 4.26 1 5.5-0.02 1.58 0.94 2.68 3.23 3.69 2.08 0.93 5.04 1.26 8.25 0.94 2.75-0.28 5.34-0.7 5.75-0.94 0.41-0.24 0.75-1.34 0.75-2.44 0-1.1-0.84-3.24-1.86-4.75-1.03-1.51-2.19-4.55-2.59-6.75-0.39-2.2-1.36-4.68-2.14-5.5-0.78-0.83-1.9-3.53-2.49-6-0.58-2.48-1.5-4.73-2.03-5-0.54-0.28-1.42-2.75-1.97-5.5-0.54-2.75-1.38-5.23-1.85-5.5-0.48-0.28-1.42-2.53-2.1-5-0.68-2.48-2.07-5.85-3.1-7.5-1.02-1.65-1.86-4.35-1.86-6 0.01-2.07-0.93-3.86-3-5.75-2.58-2.36-3.87-2.75-8.97-2.75-4.93 0-6.31 0.39-7.96 2.25zm3.92 23c1.92-6.19 3.83-11.25 4.25-11.25 0.41 0 1.94 2.14 3.4 4.75 1.46 2.61 3.67 8.8 7.16 22.75l-2.65 0.63c-1.47 0.35-6.37 0.68-19.16 0.87l1.75-3.25c0.97-1.79 3.33-8.31 5.25-14.5zm56.25-24.67c-1.24 0.23-2.25 1.09-2.25 1.92 0 0.82-0.45 1.27-1 1-0.55-0.28-2.34 0.74-3.97 2.25-1.63 1.51-3.47 4.55-4.09 6.75-0.71 2.53-0.84 6.2-0.35 10 0.55 4.26 1.45 6.65 3.09 8.25 1.28 1.24 2.31 2.59 2.31 3-0.01 0.41 2.35 1.98 5.25 3.48 2.89 1.5 6.83 2.75 8.76 2.78 1.92 0.03 5.07 0.91 7 1.95 1.92 1.04 4.74 2.15 6.25 2.46 2.56 0.54 2.72 0.87 2.34 4.83-0.25 2.66-1.09 4.72-2.25 5.51-1.05 0.73-4.83 1.27-8.84 1.27-4.32 0-7.49-0.48-8.27-1.27-0.69-0.69-1.26-2.05-1.25-3.01 0.01-0.96-0.43-1.75-0.98-1.75-0.55 0-1.79-1.36-2.75-3.01-1.13-1.95-2.55-3.01-4-3-1.24 0-2.25 0.46-2.25 1.01 0 0.55-1.24 0.98-2.75 0.95-1.51-0.02-3.31 0.65-4 1.5-0.69 0.86-1.03 2.89-0.75 4.55 0.27 1.65 1.17 3.67 2 4.5 0.82 0.82 1.5 2.4 1.5 3.5 0 1.1 0.45 2 1 2 0.55 0 2.24 1.24 3.75 2.75 1.51 1.51 3.76 3.31 5 4 1.24 0.69 4.61 1.32 7.5 1.42 2.89 0.09 5.59 0.65 6 1.25q0.75 1.06 1.5 0.08c0.41-0.55 3-1.17 5.75-1.37 2.75-0.2 6.01-0.76 7.25-1.25 1.24-0.48 4.27-2.79 6.75-5.13 2.47-2.34 4.48-5.15 4.47-6.25-0.02-1.1 0.32-2.38 0.75-2.85 0.43-0.46 0.91-1.59 1.06-2.5 0.16-0.91 0.38-2.94 0.5-4.52 0.12-1.6-0.34-3.04-1.03-3.25-0.69-0.21-1.27-1.84-1.3-3.63-0.03-2.38-1.03-4.24-3.75-6.96-2.28-2.28-4.66-3.71-6.2-3.72-1.38 0-3.25-0.81-4.16-1.79-1-1.08-3.97-2.08-7.5-2.53-3.21-0.41-6.52-1.41-7.34-2.22-0.83-0.82-2.29-1.49-3.25-1.51-0.96-0.01-1.98-0.92-2.25-2.02-0.28-1.1-0.28-2.9 0-4q0.5-2 3-2c1.37 0 3.62 0 5 0 1.37 0 3.62 0 5 0q2.5 0 3 2c0.27 1.1 1.17 2 2 2 0.82 0 1.27 0.45 1 1-0.28 0.55 0.51 1.68 1.75 2.51 1.24 0.82 4.05 1.52 6.25 1.54 2.55 0.02 4.54-0.58 5.5-1.67 0.82-0.93 1.53-3.32 1.57-5.29 0.05-2.25-0.61-4.25-1.75-5.34-1-0.96-1.82-2.2-1.82-2.75 0-0.55-1.24-1.78-2.75-2.74-1.51-0.95-3.28-2.42-3.92-3.25-0.92-1.18-3.77-1.55-13-1.68-6.51-0.1-12.84 0.01-14.08 0.25zm45.69 0.68c-0.82 0.69-1.27 2.92-1.16 5.69 0.1 2.5 0.76 5.12 1.45 5.81 0.75 0.75 3.92 1.29 7.77 1.32 3.57 0.03 7.31 0.36 8.3 0.74 1.68 0.63 1.8 2.48 1.7 26.68l-0.11 26c3.57 1.7 6.63 2.04 9.11 1.84 2.47-0.19 5.06-0.57 5.75-0.85 0.95-0.37 1.31-6.96 1.5-27.24l0.25-26.75c12.4-0.46 16.34-0.91 16.75-1.3 0.42-0.39 0.8-2.95 0.86-5.7 0.07-3.82-0.35-5.31-1.76-6.29-1.39-0.96-7.74-1.26-25.46-1.18-16.05 0.06-24.04 0.46-24.95 1.23zm62.06-0.01l-2.5 1.31-0.5 65.44c3.49 0.98 14.62 1.22 27 1.15 12.37-0.07 23.29-0.35 24.25-0.64 1.34-0.39 1.75-1.61 1.77-5.26 0-2.61-0.56-5.32-1.25-6.02-0.92-0.91-5.53-1.26-16.52-1.25-9.31 0.01-15.93-0.41-17-1.07-1.43-0.89-1.66-2.08-1.25-6.5 0.29-3.16 0.08-5.55-0.5-5.77-0.55-0.2-0.63-0.77-0.17-1.26 0.45-0.48 7.61-1.11 15.89-1.38 12.77-0.43 15.24-0.76 16.17-2.21 0.78-1.21 0.81-3.13 0.11-6.5l-1-4.79c-22.57-0.45-29.44-1.02-30-1.59-0.55-0.56-1-2.81-1-5 0-2.45 0.58-4.35 1.5-4.93 0.82-0.52 8.02-0.97 16-0.98 7.97-0.02 15.05-0.36 15.72-0.77 0.67-0.4 1.51-2.76 1.86-5.23 0.52-3.61 0.3-4.8-1.12-6-1.42-1.21-5.91-1.55-23.36-1.77-16.24-0.21-22.22 0.05-24.1 1.02zm77.5-0.55c-1.1 0.31-3.87 1.75-6.16 3.18-2.3 1.44-5.57 4.42-7.29 6.62-1.71 2.2-3.09 4.67-3.05 5.5 0.03 0.82-0.86 2.62-1.98 4-1.86 2.28-2.01 3.68-1.78 16.33 0.22 11.75 0.52 14.01 1.97 15 0.94 0.64 1.73 1.96 1.75 2.92 0.02 0.96 1.16 3.1 2.54 4.75 1.37 1.65 2.48 3.34 2.46 3.75-0.02 0.41 1.35 1.42 3.04 2.25 1.69 0.82 3.05 1.72 3.01 2-0.04 0.27 1.18 1.1 2.71 1.83 1.71 0.81 6.43 1.32 12.28 1.31 5.22 0 10.62-0.49 12-1.07 1.37-0.59 3.37-1.63 4.44-2.32 1.07-0.69 2.98-2.26 4.25-3.5 1.27-1.24 2.32-2.59 2.33-3 0.01-0.41 0.88-1.65 1.93-2.75 1.05-1.1 2.01-3.13 2.13-4.5 0.13-1.38 0.16-3.29 0.07-4.25-0.08-0.96-1.16-2.04-2.4-2.39-1.24-0.35-2.48-1.03-2.75-1.51-0.28-0.49-1.96-1.1-3.75-1.37-2.95-0.44-3.42-0.14-5 3.19-0.96 2.01-2.88 4.94-4.25 6.51-2.24 2.54-3.14 2.83-8.5 2.8-4.94-0.04-6.49-0.48-8.75-2.51-1.51-1.36-2.97-3.71-3.23-5.22-0.26-1.51-0.71-3.99-1-5.5-0.29-1.51-0.97-2.75-1.52-2.75-0.55 0-1-1.91-1-4.25 0-2.34 0.94-6.73 2.09-9.75 1.15-3.03 2.12-5.73 2.15-6 0.03-0.28 1.23-1.74 2.66-3.25 2.34-2.48 3.28-2.75 9.35-2.75 5.4 0 6.9 0.34 7.5 1.71 0.41 0.93 1.99 2.96 3.5 4.5 2.05 2.08 3.71 2.78 6.5 2.77 2.06 0 4.76-0.23 6-0.5 1.89-0.41 2.26-1.15 2.29-4.73 0.03-2.75-0.54-4.78-1.62-5.75-0.91-0.83-2.28-2.74-3.04-4.25-0.76-1.51-2.39-3.04-3.63-3.4-1.24-0.36-2.78-1.37-3.42-2.25-0.93-1.28-3.37-1.64-12-1.79-5.96-0.1-11.73 0.07-12.83 0.39zm49.46 0.54c-1.1 0.94-1.32 7.35-1.16 33.96 0.15 25.05 0.49 32.95 1.45 33.46 0.69 0.36 11.6 0.6 24.25 0.53 12.65-0.08 23.79-0.38 24.75-0.67 1.34-0.4 1.76-1.63 1.78-5.27 0.02-3.93-0.37-4.96-2.25-5.98-1.47-0.79-8-1.33-18.28-1.5l-16-0.27c-1.14-10.08-1.26-13.56-0.99-14.25 0.36-0.93 4.48-1.25 15.79-1.25 10.92 0 15.65-0.36 16.52-1.25 0.66-0.69 1.2-3.05 1.18-5.25-0.02-2.2-0.46-4.68-0.98-5.5-0.75-1.19-4.18-1.6-16.73-2l-15.79-0.5c0.29-7.75 0.4-10.23 0.43-10.5 0.04-0.28 7.38-0.65 16.32-0.83 8.94-0.18 16.59-0.52 17-0.75 0.41-0.23 0.75-3.12 0.75-6.42 0-5.42-0.22-6.05-2.25-6.47-1.24-0.25-11.74-0.46-23.34-0.46-14.55 0.01-21.51 0.37-22.45 1.17zm62.08-0.19l-3.45 1.01c0.33 53.74 0.78 66.12 1.41 66.44 0.55 0.27 9.59 0.61 20.08 0.75 16.81 0.22 19.22 0.05 20.25-1.41 0.64-0.91 2.41-2.15 3.92-2.75 1.51-0.6 2.75-1.77 2.75-2.59 0-0.83 0.79-1.71 1.75-1.97 0.96-0.25 2.09-1.83 2.5-3.5 0.41-1.67 1.54-3.79 2.5-4.71 1.52-1.47 1.75-3.74 1.75-17.46 0-13.39-0.25-15.97-1.63-17.07-0.9-0.71-1.91-2.53-2.25-4.04-0.34-1.51-1.75-3.88-3.12-5.25-1.38-1.38-3.96-3.24-5.75-4.14-1.79-0.9-3.48-2.07-3.75-2.58-0.28-0.52-7.93-1.13-17-1.34-9.42-0.23-17.98 0.03-19.96 0.61zm10.57 11.66c1.67-1.69 2.84-1.84 9.89-1.29 4.4 0.35 9.57 1.04 11.5 1.53 1.92 0.5 4.87 2.4 6.55 4.23 1.68 1.82 3.7 5.12 4.49 7.32 0.87 2.41 1.44 7.83 1.45 13.66 0.01 8.94-0.18 9.87-2.49 12.35-1.38 1.47-3.85 3.36-5.5 4.19-1.79 0.9-5.22 1.44-8.5 1.33-3.03-0.11-7.75-0.13-10.5-0.05-3.96 0.11-5.42-0.31-7-2.02-1.86-2.02-1.99-3.47-1.89-20.75 0.1-16.79 0.3-18.78 2-20.5zm72.14-12.03c-1.51 0.28-3.2 1.13-3.75 1.91-0.55 0.77-1.56 1.42-2.25 1.44-0.69 0.01-2.71 1.36-4.5 3-1.79 1.63-3.25 3.19-3.25 3.47 0 0.27-0.68 1.17-1.5 2-0.83 0.82-1.79 2.74-2.14 4.25-0.34 1.51-1.2 3.42-1.9 4.25-0.7 0.82-1.59 4.87-1.98 9-0.39 4.12-0.43 9.86-0.09 12.75 0.33 2.89 1.21 5.81 1.94 6.5 0.72 0.69 1.61 2.37 1.95 3.75 0.35 1.37 1.44 3.55 2.43 4.84 0.98 1.29 2.7 3.32 3.81 4.5 1.11 1.19 3.59 3.14 5.5 4.35 1.91 1.2 6.18 2.68 9.48 3.28 3.3 0.6 6.45 1.1 7 1.12 0.55 0.01 4.37-0.49 8.5-1.12 5.02-0.76 8.08-1.77 9.25-3.06 0.96-1.05 2.54-2.13 3.5-2.39 0.96-0.26 2.54-1.84 3.5-3.5 0.96-1.66 2.2-3.02 2.75-3.02 0.55 0 1-0.79 1.01-1.75 0.01-0.96 1.13-3.66 2.5-6 2.22-3.8 2.49-5.37 2.49-14.75 0-7.32-0.45-11.34-1.47-13.25-0.81-1.51-2.16-4.44-3-6.5-0.84-2.06-1.98-3.75-2.53-3.75-0.55 0-1.01-0.56-1.01-1.25-0.01-0.69-1.47-2.49-3.25-4-1.78-1.51-3.8-2.75-4.49-2.75-0.69 0-1.67-0.79-2.18-1.75-0.8-1.5-2.6-1.78-12.25-1.91-6.23-0.09-12.56 0.07-14.07 0.34zm3.75 16.93c2.16-1.18 5.01-1.57 10.17-1.38 5.37 0.2 7.89 0.79 10 2.33 1.56 1.13 3.85 4.05 5.09 6.5 1.37 2.69 2.25 6.2 2.23 8.94-0.01 2.47-0.8 7.01-1.76 10.09-0.95 3.07-2.41 6.39-3.23 7.37-0.83 0.98-2.74 2.4-4.25 3.16-1.51 0.76-4.55 1.38-6.75 1.38-2.2 0-5.69-0.85-7.75-1.88-2.06-1.03-5.28-3.17-7.16-4.75-1.87-1.58-4.24-4.78-5.25-7.12-1.01-2.34-1.84-6.05-1.84-8.25 0-2.2 0.85-5.69 1.89-7.75 1.04-2.06 2.73-4.48 3.75-5.38 1.02-0.89 3.21-2.36 4.86-3.26zm-924.56 18.4c-0.79 1.1-2 2-2.69 2-0.69-0.01-2.03 1.23-2.98 2.74-0.95 1.51-2.03 2.97-2.4 3.25-0.37 0.27-1.17 3.2-1.78 6.5-0.61 3.3-1.11 8.25-1.13 11-0.01 2.75-0.67 5.9-1.46 7-0.79 1.1-1.23 2.34-0.97 2.75 0.26 0.41 0.02 0.75-0.53 0.75-0.55 0-1 0.79-1 1.75 0 0.96-1.35 2.99-3 4.5-1.65 1.51-3.45 2.75-4 2.75-0.55 0-1 0.45-1 1 0 0.55-0.79 1.32-1.75 1.71-0.96 0.39-3.21 2.19-5 4-1.79 1.81-3.24 3.85-3.22 4.54 0.01 0.69-0.33 0.91-0.75 0.51-0.43-0.41-1.36-0.19-2.08 0.5-0.71 0.68-1.27 1.91-1.24 2.74 0.04 0.82-0.85 2.17-1.96 3-1.11 0.82-2.02 2.51-2.01 3.75 0 1.24-0.9 3.26-2.01 4.5-1.11 1.24-2 3.37-1.98 4.75 0.02 1.37-0.87 3.51-1.98 4.75-1.11 1.24-2 2.81-1.98 3.5 0.03 0.69-0.67 1.92-1.54 2.75-0.87 0.82-1.57 1.16-1.55 0.75 0.03-0.41-1.08-0.08-2.45 0.75-1.59 0.95-5.06 1.5-9.5 1.5-3.85 0-9.08 0.53-11.62 1.19-2.54 0.65-5.23 1.89-5.97 2.75-0.75 0.87-1.36 3.89-1.38 6.81-0.02 2.89 0.31 5.23 0.72 5.22 0.41-0.02 1.31 1.11 2 2.5 0.69 1.39 1.25 3.65 1.25 5.03 0 1.37 0.67 2.72 1.5 3 0.82 0.27 1.95 1.62 2.5 3 0.55 1.37 1.67 2.5 2.5 2.5 0.83 0 1.5 0.89 1.5 2 0 1.1 0.79 2.2 1.75 2.46 0.96 0.25 2.87 1.37 4.25 2.48 1.37 1.11 2.84 1.81 3.25 1.54 0.41-0.26 0.75-0.03 0.75 0.52 0 0.55 0.45 0.77 1 0.5 0.55-0.28 1.67 0.17 2.5 1 0.98 0.98 3.89 1.58 8.45 1.75 3.82 0.14 7.44-0.2 8.04-0.75 0.77-0.71 0.57-1.9-0.7-4.13-1.51-2.63-2.71-3.3-7.54-4.25-3.16-0.62-5.75-1.57-5.75-2.12 0-0.55-0.56-1-1.25-0.99-0.69 0-2.48-0.56-3.99-1.25-1.51-0.69-2.77-1.71-2.79-2.26-0.03-0.55-1.16-2.01-2.51-3.25-1.35-1.24-2.16-2.48-1.79-2.75 0.36-0.28 0.14-0.5-0.5-0.5-0.75 0-1.17-1.98-1.17-5.5v-5.5c14.34 0.25 19.62-0.04 21-0.49 1.37-0.45 3.74-2.1 5.25-3.66 1.51-1.57 2.75-3.3 2.75-3.85 0-0.55 0.76-2.69 1.7-4.75 0.93-2.06 1.99-3.98 2.34-4.25 0.36-0.28 0.95-1.74 1.31-3.25 0.35-1.51 1.25-3.31 1.98-4 0.72-0.69 1.62-2.49 2-4 0.37-1.51 1.34-3.43 2.17-4.25 0.82-0.83 1.5-1.95 1.5-2.5 0-0.55 1.56-2.58 3.47-4.5 1.9-1.93 3.93-3.5 4.5-3.5 0.56 0 1.25-0.9 1.53-2 0.27-1.1 1.17-2 2-2 0.82 0 3.52-2.03 6-4.5 2.47-2.48 4.5-5.18 4.5-6 0-0.83 0.45-1.5 1-1.5 0.55 0 1-0.9 1-2 0-1.1 0.45-2 1-2 0.58 0 1-3.17 1-7.5 0-4.13 0.56-8.64 1.25-10.03 0.69-1.39 1.59-2.52 2-2.5 0.41 0.01 0.75-0.65 0.75-1.47 0-0.83 0.5-2.29 1.11-3.25 0.7-1.12 2.06-1.64 3.75-1.44 1.45 0.17 3.65 0.51 4.89 0.75 1.24 0.24 2.92 1.11 3.75 1.94 1.33 1.33 1.67 1.33 3 0 0.82-0.83 1.48-2.51 1.46-3.75-0.02-1.24-1.48-3.71-3.25-5.49-1.76-1.78-4-3.25-4.96-3.25-0.96-0.01-1.75-0.46-1.75-1.01 0-0.55-0.9-1-2-1-1.1 0-2-0.45-2-1 0-0.55-1.26-1-2.81-1-1.67 0-3.39 0.81-4.25 2.01zm123.06 8.99c0 0.57-3.08 1-7.25 1-3.99-0.01-13.33 0.48-20.75 1.08-7.43 0.59-13.73 1.45-14 1.9-0.28 0.45-1.85 1.07-3.5 1.36-1.65 0.3-4.3 0.91-5.88 1.35-1.58 0.45-3.38 1.6-4 2.56-0.82 1.28-0.83 2.21-0.01 3.5 0.66 1.04 3.09 2.06 6 2.53 2.69 0.43 5.56 1.01 6.39 1.3 1.33 0.46 1.33 0.63 0 1.45-0.83 0.52-2.55 0.94-3.82 0.95-1.28 0.01-2.97 0.69-3.75 1.52-0.79 0.82-1.45 2.06-1.47 2.75-0.03 0.69-0.67 3.05-1.43 5.25-0.75 2.2-1.2 4.45-0.98 5 0.22 0.55 1.65 1.36 3.17 1.8 2.09 0.6 2.96 0.42 3.53-0.75 0.41-0.85 1.31-1.55 2-1.54 0.69 0 1.92-0.9 2.75-2.01 0.82-1.11 2.06-2.02 2.75-2.01 0.69 0 2.49 0.92 4 2.04 1.51 1.12 4.21 2.02 6 2 2.43-0.02 3.37 0.47 3.75 1.97 0.27 1.1 1.17 2 2 2 0.82 0 2.87 1.46 4.56 3.25 1.68 1.79 3.25 4.04 3.5 5 0.24 0.96 0.89 1.75 1.44 1.75 0.55 0 1 0.9 1 2 0 1.1 0.9 2.56 2 3.25 1.47 0.91 2 2.32 1.99 5.25-0.01 2.2 0.55 11.27 1.24 20.17 0.7 8.89 1.6 15.64 2 15 0.41-0.65 0.75 0.29 0.75 2.08 0.01 1.79 0.58 4.24 1.27 5.44 0.69 1.21 2.15 3.12 3.25 4.25 1.1 1.13 3.12 2.57 4.5 3.21 1.37 0.63 3.98 1.75 5.79 2.5 1.81 0.74 3.27 1.69 3.25 2.1-0.02 0.41 7.5 0.75 16.71 0.76 15.65 0.01 16.85-0.12 18.25-2.01 0.82-1.11 2.29-2.02 3.25-2.01 0.96 0 1.73-0.33 1.72-0.74-0.02-0.41 0.99-1.93 2.25-3.37 1.25-1.44 3.14-3.69 4.18-5 1.05-1.31 1.98-2.83 2.06-3.38 0.09-0.55 0.47-2.01 0.85-3.25 0.38-1.24 1.14-2.25 1.69-2.25 0.55 0 0.98-0.56 0.97-1.25-0.02-0.69 1.33-2.71 3-4.5 1.66-1.79 3.03-3.7 3.03-4.25 0-0.55 0.67-1.23 1.5-1.5 0.82-0.28 2.06-0.51 2.75-0.53 0.69-0.01 1.59 1.34 2 3 0.42 1.69 1.41 3.03 2.25 3.03 1.08 0 1.5 1.11 1.5 4 0 2.2 0.45 4.22 1 4.5 0.55 0.27 0.77 1.62 0.5 3-0.28 1.39 0.08 3.05 0.82 3.75 0.72 0.69 1.81 3.27 2.42 5.75 0.96 3.88 0.88 4.67-0.56 5.72-0.93 0.67-2.24 1.23-2.93 1.25-0.69 0.01-1.25 0.37-1.25 0.78 0 0.41-1.46 1.39-3.25 2.18-1.79 0.78-4.49 2.58-6 4-1.52 1.41-2.75 3.02-2.74 3.57 0 0.55-0.9 1.67-2.01 2.5-1.11 0.82-2.02 2.51-2.01 3.75 0.01 1.42-0.73 2.43-1.99 2.75-1.17 0.29-2 1.33-2 2.5 0 1.1-0.9 2.56-2 3.25-1.11 0.69-2.01 1.81-2 2.5 0 0.69-0.91 2.26-2.02 3.5-1.11 1.24-2.01 2.81-2 3.5 0.01 0.69-0.43 1.25-0.98 1.25-0.55 0-1.01 1.01-1.02 2.25-0.01 1.82-0.2 1.96-0.98 0.75-0.78-1.22-0.97-1.07-0.99 0.75 0 1.24-0.46 2.25-1.01 2.25-0.55 0-1 0.45-1 1 0 0.55-0.91 2.01-2.02 3.25-1.11 1.24-2.01 2.92-1.99 3.75 0.02 0.82-0.88 2.17-1.99 3-1.11 0.82-2.02 2.17-2.01 3 0.01 0.82-0.89 2.06-1.99 2.75-1.28 0.8-2 2.33-2 4.25 0 1.78 0.61 3.2 1.5 3.5 0.82 0.27 2.17 0.27 3 0 0.82-0.28 1.27-0.95 1-1.5-0.28-0.55 0.42-1 1.54-1 1.13 0 3.04-1.04 4.25-2.31 1.22-1.27 2.73-3.18 3.37-4.25 0.63-1.07 1.64-1.83 2.25-1.69 0.6 0.14 1.09-0.65 1.09-1.75 0-1.1 0.34-2 0.75-2 0.41 0.01 1.87-1.8 3.25-4 1.37-2.21 2.72-3.99 3-3.97 0.27 0.03 1.17-1.34 2-3.03 0.82-1.7 1.72-3.06 2-3.02 0.27 0.03 1.17-1.54 2-3.48 0.82-1.95 1.72-3.51 2-3.48 0.27 0.03 2.52-3.08 5-6.93 2.69-4.18 6.1-8.01 8.5-9.55 2.2-1.41 4.79-2.56 5.75-2.56 0.96 0.01 1.75-0.43 1.75-0.98 0-0.55 0.9-1.23 2-1.5 1.1-0.28 1.99-1.06 1.99-1.75-0.01-0.69 0.9-1.93 2.01-2.75 1.41-1.05 2.02-2.64 2.01-5.25-0.01-2.17 0.41-3.54 0.99-3.25 0.59 0.29 1-1.34 1-4 0-2.67-0.41-4.3-1-4-0.61 0.3-1-1.84-1-5.5 0-3.3-0.56-7.14-1.25-8.53-0.69-1.39-1.59-2.52-2-2.5-0.41 0.01-0.76-0.98-0.76-2.22-0.01-1.24-0.57-3.83-1.25-5.75-0.68-1.93-1.46-3.73-1.74-4-0.28-0.28-1.18-1.85-2-3.5-0.82-1.65-1.95-3.33-2.5-3.74-0.55-0.4-2.8-0.75-5-0.77-2.39-0.02-6.31 1.08-9.75 2.73-3.16 1.53-5.75 3.34-5.75 4.03 0 0.69-0.9 1.47-2 1.75-1.1 0.27-2 0.95-2 1.5 0 0.55-1.13 2.12-2.5 3.5-1.38 1.37-2.73 3.4-3 4.5-0.28 1.1-0.84 1.98-1.25 1.96-0.41-0.02-1.43 1.34-2.25 3.04-0.83 1.69-1.84 3.06-2.25 3.04-0.41-0.02-0.75 0.86-0.75 1.96 0 1.1-0.45 2-1 2-0.55 0-0.78 0.45-0.5 1 0.27 0.55-0.64 1.56-2.03 2.25-1.39 0.69-2.52 2.04-2.5 3 0.03 1.58-1.25 1.75-12.97 1.75-8 0-13-0.39-13-1 0-0.55-1.13-1-2.5-1-1.52 0-3.87-1.37-6-3.5-2.13-2.14-3.5-4.48-3.5-6 0-1.38-0.34-2.49-0.75-2.48-0.41 0.01-1.14-1.45-1.62-3.25-0.48-1.8-1.21-6.87-1.64-11.27-0.42-4.4-1.27-9.8-1.88-12-0.62-2.2-1.37-6.93-1.68-10.5-0.31-3.58-0.98-6.61-1.49-6.75-0.52-0.14-0.94-0.93-0.94-1.75 0-0.83-0.56-2.51-1.25-3.75-0.69-1.24-3.61-4.61-6.5-7.5-2.89-2.89-5.93-5.25-6.75-5.25-0.83 0-1.5-0.45-1.5-1 0-0.55-0.45-0.78-1-0.5-0.55 0.27-1-0.18-1-1 0-0.88-0.93-1.52-2.25-1.53-1.24-0.02-3.49-1.15-5-2.5-1.51-1.36-2.75-2.92-2.75-3.47 0-0.55 0.45-1 1-1 0.55 0 0.99-0.56 0.98-1.25-0.01-0.73 1.97-1.55 4.75-1.97 2.62-0.39 9.72-1 15.77-1.35 6.05-0.35 18.2-0.11 27 0.52 8.8 0.64 16.22 1.54 16.5 2.01 0.27 0.46 8.15 1.14 17.5 1.49 9.35 0.35 19.02 0.88 21.5 1.16 2.47 0.29 4.72 0.87 5 1.28 0.27 0.41 1.17 1.01 2 1.33 0.82 0.32 10.32 0.96 21.11 1.43 16.84 0.73 19.84 0.64 21.29-0.65 0.93-0.83 1.67-2.06 1.64-2.75-0.02-0.69-1.05-2.32-2.29-3.62-1.28-1.33-3.99-2.63-6.25-2.99-2.2-0.35-5.69-0.86-7.75-1.14-2.06-0.27-3.75-0.95-3.75-1.5 0-0.55-3.71-1.22-8.25-1.5-4.54-0.27-13.09-0.72-19-1-5.91-0.27-10.79-0.89-10.83-1.37-0.05-0.48-3.31-1.17-7.25-1.53-3.95-0.36-9.31-0.87-11.92-1.13-2.61-0.26-4.75-0.92-4.75-1.47 0-0.64-7.33-1-20-1-12.67 0-20 0.36-20 1zm201.87 54.25c-0.07 0.69-0.08 2.6-0.02 4.25 0.06 1.65 0.49 3.22 0.96 3.5 0.48 0.27 1.39 2.07 2.04 4 0.65 1.92 1.17 4.51 1.17 5.75-0.01 1.24 0.65 2.47 1.48 2.75 0.91 0.3 1.75 2.35 2.14 5.25 0.35 2.61 1.49 5.87 2.53 7.25 1.11 1.45 1.88 4.07 1.86 6.25-0.02 2.21 0.45 3.75 1.14 3.75 0.64 0 0.86 0.22 0.5 0.5-0.37 0.27-0.1 1.06 0.61 1.75 0.7 0.69 1.62 3.5 2.05 6.25 0.42 2.75 1.42 5.45 2.21 6 0.78 0.55 1.63 2.57 1.87 4.5 0.25 1.92 0.7 4.29 1.02 5.25 0.31 0.96 1.02 1.75 1.57 1.75 0.55 0 1.29 2.14 1.64 4.75 0.36 2.61 1.48 6.32 2.51 8.25 1.02 1.92 1.85 4.74 1.85 6.25 0 1.51 0.59 3.31 1.32 4 0.72 0.69 1.85 2.82 2.51 4.75 0.66 1.92 1.19 4.29 1.19 5.25-0.01 0.96 0.89 2.99 2.01 4.5 1.22 1.65 2.02 4.25 2 6.5-0.02 2.47 0.48 3.92 1.47 4.25 0.82 0.27 1.72 1.96 2 3.75 0.27 1.79 1.06 3.8 1.75 4.48 0.9 0.89 5.19 1.18 15.25 1l14-0.23c1.55-6.63 2.53-8.88 3.19-9.28 0.65-0.4 1.48-2.75 1.85-5.22 0.36-2.48 1.51-5.74 2.56-7.25 1.04-1.51 1.89-4.21 1.87-6-0.02-1.79 0.77-4.19 1.75-5.34 0.98-1.15 2.13-4.3 2.56-7 0.44-2.7 1.38-5.59 2.09-6.41 0.72-0.83 1.83-4.09 2.47-7.25 0.64-3.16 1.61-5.75 2.16-5.75 0.55 0 1.45-2.25 2-5 0.55-2.75 1.62-6.01 2.38-7.25 0.76-1.24 1.66-4.16 2-6.5 0.34-2.34 1.29-4.93 2.12-5.75 0.82-0.83 1.79-3.41 2.14-5.75 0.36-2.34 1.48-5.6 2.5-7.25 1.02-1.65 1.84-4.13 1.82-5.5-0.02-1.38 0.89-3.74 2-5.25 1.12-1.51 2.05-4.21 2.07-6 0.02-1.79 0.92-4.71 2-6.5 1.08-1.79 1.74-4.15 1.47-5.25-0.47-1.88-1.33-2-14-2-12.92 0-13.56 0.09-14.89 2.25-0.77 1.24-1.67 4.39-2 7-0.34 2.61-1.17 4.91-1.86 5.11-0.71 0.2-1.57 3.01-2 6.5-0.5 4.07-1.26 6.31-2.25 6.64-0.96 0.32-1.72 2.38-2.11 5.75-0.33 2.89-1.22 5.92-1.98 6.75-0.76 0.82-1.83 4.09-2.39 7.25-0.56 3.16-1.7 6.42-2.52 7.25-0.83 0.82-1.49 3.19-1.47 5.25 0.02 2.25-0.78 4.85-2 6.5-1.12 1.51-2.03 4.21-2.03 6-0.01 1.79-0.96 4.82-2.13 6.75-1.16 1.92-2.3 4.62-2.52 6-0.23 1.37-0.63 3.17-0.89 4-0.27 0.82-0.68 1.27-0.93 1-0.24-0.28-0.91-2.86-1.49-5.75-0.57-2.89-1.72-5.93-2.54-6.75-0.83-0.83-1.49-3.19-1.47-5.25 0.02-2.17-0.76-4.81-1.85-6.25-1.03-1.38-2.2-4.53-2.59-7-0.39-2.48-1.3-5.18-2.02-6-0.72-0.83-1.59-3.41-1.94-5.75-0.35-2.34-1.53-5.94-2.63-8-1.11-2.06-2.04-4.88-2.07-6.25-0.04-1.38-0.46-3.4-0.93-4.5-0.47-1.1-0.92-1.55-1-1-0.08 0.55-0.53 0.1-1-1-0.47-1.1-0.89-3.35-0.93-5-0.03-1.65-0.97-4.69-2.07-6.75-1.1-2.06-2.25-5.66-2.56-8-0.42-3.18-1.17-4.57-3-5.5-1.57-0.81-6.91-1.25-14.94-1.25-9.27 0-12.53 0.32-12.63 1.25zm148.49 1.55c-1.18 1.49-2.47 4.5-2.87 6.7-0.39 2.2-1.43 5.12-2.31 6.5-0.88 1.37-1.73 3.29-1.89 4.25-0.16 0.96-1.42 4.22-2.79 7.25-1.38 3.02-2.51 6.29-2.53 7.25-0.01 0.96-0.69 2.42-1.51 3.25-0.82 0.82-1.77 3.52-2.11 6-0.35 2.47-1.46 5.29-2.49 6.25-1.02 0.96-1.85 2.99-1.83 4.5 0.02 1.51-0.88 3.99-2 5.5-1.12 1.51-2.03 3.65-2.03 4.75 0 1.1-0.49 3.24-1.08 4.75-0.59 1.51-1.38 2.97-1.76 3.25-0.38 0.27-1.28 2.75-2 5.5-0.72 2.75-1.74 5.22-2.27 5.5-0.54 0.27-1.42 2.75-1.97 5.5-0.55 2.75-1.6 5.67-2.33 6.5-0.74 0.82-1.67 3.3-2.09 5.5-0.41 2.2-1.27 4.45-1.9 5-0.64 0.55-1.49 2.91-1.88 5.25-0.4 2.34-1.4 4.92-2.22 5.75-0.83 0.82-1.77 2.51-2.1 3.75-0.32 1.24-0.32 3.26 0 4.5 0.58 2.17 1.01 2.25 12.85 2.29l12.25 0.05c4.02-5.11 5.52-8.62 5.92-11.09 0.41-2.48 1.62-5.63 2.69-7 1.08-1.38 1.95-3.63 1.94-5-0.01-1.38 0.31-3.1 0.71-3.84 0.41-0.73 1.08-1.29 1.49-1.25 0.41 0.05 1.31-0.15 2-0.44 0.69-0.29 11.12-0.4 23.19-0.25l21.93 0.28c1.44 5.42 2.44 7.9 3.14 9 0.71 1.1 1.61 3.57 2.01 5.5 0.39 1.92 1.22 4.12 1.84 4.89 0.63 0.76 1.6 3.01 2.17 5l1.03 3.61c20.87 0.43 25.82 0.1 27.65-0.75 2.64-1.22 2.66-1.3 0.87-3.25-1.01-1.1-2.11-3.69-2.46-5.75-0.34-2.06-1.3-3.98-2.12-4.25-0.97-0.32-1.68-2.28-2-5.5-0.29-2.9-1.1-5.32-1.93-5.75-0.79-0.41-1.84-3-2.32-5.75-0.53-2.96-1.37-4.9-2.07-4.75-0.69 0.14-1.6-1.84-2.18-4.75-0.55-2.75-1.64-6.01-2.43-7.25-0.78-1.24-1.68-3.94-2-6-0.31-2.06-0.91-3.74-1.32-3.72-0.41 0.01-1.31-1.11-2-2.5-0.69-1.39-1.25-3.88-1.25-5.53 0-1.78-0.61-3.21-1.5-3.5-0.83-0.28-1.75-1.96-2.06-3.75-0.31-1.79-1.1-4.51-1.75-6.04-0.66-1.54-1.53-2.77-1.94-2.75-0.41 0.02-0.76-0.75-0.77-1.71-0.01-0.96-0.57-3.42-1.25-5.45-0.68-2.03-1.57-3.49-1.98-3.25-0.41 0.25-1.02-1.46-1.36-3.8-0.33-2.34-1.4-5.6-2.37-7.25-0.97-1.65-2.04-4.46-2.39-6.25-0.35-1.79-1.21-3.81-1.92-4.5-0.7-0.69-1.6-2.94-2-5-0.39-2.06-1.72-4.89-2.96-6.28-2.19-2.45-2.6-2.52-14.75-2.44-12.34 0.08-12.53 0.11-14.64 2.77zm13.26 27.45c1.36-1.79 2.74-3.25 3.07-3.25 0.33 0 1.76 1.91 3.18 4.25 1.41 2.34 3.66 6.72 5 9.75 1.34 3.02 4.81 12.47 7.72 21 2.91 8.52 5.32 15.95 5.35 16.5 0.04 0.6-4.75 1.06-12.19 1.16-6.74 0.09-16.3 0.43-21.25 0.76-6.37 0.42-9.62 0.22-13.26-1.92l2.92-7.5c1.6-4.13 3.53-8.63 4.28-10 0.76-1.38 2.28-5.2 3.39-8.5 1.1-3.3 3.66-8.93 5.67-12.5 2.01-3.58 4.77-7.96 6.12-9.75zm78.46-27.69c-0.48 1.41-0.93 29.54-0.98 62.5-0.06 32.97 0.12 60.61 0.4 61.44 0.43 1.3 6.17 1.5 43.5 1.5 33.38 0 43.15-0.28 43.66-1.25 0.36-0.69 0.56-5.53 0.44-10.75-0.13-5.23-0.46-9.73-0.75-10-0.28-0.28-13.87-0.73-30.18-1l-29.67-0.5-0.5-102.5c-3.88-1.55-9.51-2-15.02-2-9.86 0-10.03 0.04-10.9 2.56zm103.42-1.27c-0.64 0.77-1 23.18-1 62.71 0 47.86 0.28 61.77 1.25 62.75 0.97 0.97 11.66 1.19 48 1l46.75-0.25c0.41-16.9 0.1-20.4-0.76-21.3-0.97-1.01-8.54-1.28-34.49-1.25l-33.25 0.05 0.5-31.5c48.29-0.8 60.81-1.4 61.41-2 0.55-0.55 1.17-4.6 1.37-9 0.2-4.4 0.07-8.9-0.31-10-0.65-1.93-1.79-2.02-31.57-2.5l-30.9-0.5v-26c56.19-0.5 65.35-0.91 66.29-1.79 0.88-0.82 1.29-4.11 1.27-10.21-0.02-5.9-0.46-9.44-1.29-10.27-0.99-0.99-11.33-1.25-46.77-1.21-34.37 0.04-45.75 0.35-46.5 1.27zm106.98 0.03c-0.26 0.73-0.36 5.79-0.23 11.25l0.25 9.93c31.56 0.48 32.53 0.61 33 2.5 0.27 1.1 0.84 2 1.25 2 0.41 0 0.75 21.82 0.75 48.5 0 31.69-0.35 48.49-1 48.46-0.55-0.02 0.24 0.88 1.75 2 2.35 1.75 4.26 2.04 13.25 2.04 5.77 0 11.51-0.47 12.75-1.05l2.25-1.04c-0.45-86.05-0.21-98.05 0.75-100.16l1.25-2.76c26.68 0.01 31.45-0.35 32.32-1.24 0.77-0.8 1.21-4.54 1.21-10.25 0-5.93-0.43-9.43-1.26-10.27-0.99-0.99-11.9-1.26-49.55-1.25-39.09 0.01-48.36 0.27-48.74 1.34zm104.77 0.22c-0.79 0.92-1.26 4.69-1.28 10.21-0.03 8.59 0.02 8.77 2.75 10.09 2 0.96 7.11 1.3 18.28 1.19l15.5-0.15c1.18 5.13 1.52 28.78 1.51 55.87l-0.01 49.25c21.48 0 25.19-0.35 25.67-1.25 0.36-0.69 0.58-22.4 0.49-48.25-0.1-25.85 0.05-48.91 0.33-51.25l0.51-4.25c29.67 0 33.16-0.29 34.43-1.5 0.86-0.83 1.81-1.16 2.1-0.75 0.29 0.41 0.51-3.41 0.5-8.5-0.02-6.86-0.42-9.64-1.53-10.75-1.29-1.3-8.16-1.5-49.75-1.46-41.06 0.03-48.44 0.25-49.5 1.5zm114.21-0.29c-0.26 0.69-0.36 29.37-0.22 63.75l0.26 62.5c83.52 0.42 94.15 0.2 94.66-0.76 0.36-0.69 0.7-4.95 0.75-9.49 0.05-4.54-0.36-9.15-0.91-10.25-0.97-1.94-1.97-2-34.25-1.95l-33.25 0.06c-0.78-24.25-0.81-31.47-0.58-31.7 0.22-0.23 13.27-0.42 29-0.43 21.02-0.01 29.24-0.35 31.08-1.28 2.36-1.19 2.51-1.76 2.75-10.48 0.23-8.36 0.06-9.32-1.75-10.22-1.2-0.6-13.83-1-31.5-1h-29.5v-27c58.43 0.02 63.86-0.22 65.75-1.49 2.09-1.41 2.23-2.15 2-10.63-0.23-8.42-0.42-9.19-2.5-10-1.24-0.49-22.29-0.88-46.78-0.88-34.69 0-44.63 0.27-45.01 1.25z"/>
</svg>